<svg width="700" height="500" xmlns="http://www.w3.org/2000/svg">
 <!-- Created with Method Draw - http://github.com/duopixel/Method-Draw/ -->

 <g>
  <title>background</title>
  <rect x="-1" y="-1" width="702" height="502" id="canvas_background" fill="#fff"/>
  <g id="canvasGrid" display="none">
   <rect id="svg_1" width="100%" height="100%" x="0" y="0" stroke-width="0" fill="url(#gridpattern)"/>
  </g>
 </g>
 <g>
  <title>Layer 1</title>
  <path fill="none" stroke-width="4.5" stroke-opacity="null" fill-opacity="null" d="m11.5,497.45311c20.38872,-83.32553 42.81631,-141.11583 42.30659,-141.72481c0.50972,0.60898 9.68464,-102.87596 9.17492,-103.48495c0.50972,0.60899 23.95674,-57.1813 23.44702,-57.79029c0.50972,0.60899 39.24828,-22.23834 38.73856,-22.84732c31.46207,-21.70982 86.14232,-22.23834 85.63261,-22.84733c0.50971,0.60899 15.80125,1.95295 15.80125,1.95295c0,0 82.5743,-13.4396 82.06458,-14.04859c0.50972,0.60899 88.18119,-34.33398 87.67148,-34.94297c0.50971,0.60899 72.40376,-5.07893 46.89404,-2.68792c20.50972,-0.39101 81.04514,-0.73497 80.53543,-1.34396c0.50971,0.60899 12.74294,-2.07893 12.23322,-2.68792" id="svg_8" stroke="#336f33"/>
  <!-- The 1st leaf -->
  <path fill="#ca9a30" stroke-width="1.5" stroke-opacity="null" fill-opacity="null" d="m12.710208,413.761417c1.010961,-6.104413 2.394689,-11.274218 3.707242,-13.850769c1.406189,-2.760364 0.782311,-3.957721 -0.668288,-1.282592c-0.610285,1.12545 -0.784652,0.30825 -0.784652,-3.677418c0,-9.509486 2.673065,-15.39368 9.104601,-20.04185c5.442034,-3.93306 9.454202,-8.35604 11.117734,-12.256112l1.355572,-3.178094l0,5.529569c0,6.837395 -1.150285,17.167043 -2.423546,21.763634c-1.350702,4.87618 -5.980399,13.876888 -8.252267,16.043444c-2.035392,1.941057 -6.382336,2.512493 -8.705574,1.144414c-1.157765,-0.681761 -1.525203,-0.160861 -2.125097,3.012653c-0.398913,2.110302 -0.725298,5.112536 -0.725298,6.671606c0,1.769977 -0.384942,2.834666 -1.024878,2.834666c-0.760051,0 -0.908771,-0.701061 -0.575549,-2.71315l-0.000001,0l0.000001,-0.000001z" id="svg_6" stroke="#000" transform="rotate(-36 24.54241943359393,387.97457885742193) "/>
  <!-- The 2nd leaf -->
  <path fill="#709030" stroke-width="1.5" d="m60.004699,361.271958c1.7099,-5.096933 4.050295,-9.413503 6.270304,-11.564809c2.378387,-2.304787 1.323172,-3.30453 -1.130323,-1.070911c-1.032209,0.939699 -1.327132,0.257376 -1.327132,-3.070496c0,-7.940014 4.521138,-12.853074 15.399218,-16.734094c9.204472,-3.283944 15.990523,-6.976951 18.804164,-10.233346l2.292769,-2.653574l0,4.616956c0,5.708941 -1.945547,14.333768 -4.099105,18.171722c-2.28453,4.071402 -10.115045,11.586614 -13.957603,13.395597c-3.442598,1.620705 -10.794876,2.097837 -14.724324,0.955537c-1.958197,-0.56924 -2.579672,-0.134311 -3.594317,2.515445c-0.674707,1.76201 -1.226736,4.268756 -1.226736,5.570513c0,1.477849 -0.651087,2.366823 -1.733444,2.366823c-1.28553,0 -1.537074,-0.585356 -0.97347,-2.265363l0,0l-0.000001,0z" id="svg_5" transform="rotate(21 80.01730346679658,339.7410278320313) " stroke="#000"/>
  <!-- The 3rd leaf -->
  <path fill="green" stroke-width="1.5" stroke-opacity="null" fill-opacity="null" d="m12.769229,299.076533c1.727058,-4.712182 4.090926,-8.702911 6.333204,-10.691829c2.40224,-2.130809 1.336448,-3.055085 -1.141658,-0.990072c-1.04257,0.868769 -1.340447,0.237947 -1.340447,-2.838711c0,-7.340661 4.566485,-11.882849 15.553692,-15.470912c9.296807,-3.036049 16.150928,-6.450281 18.992794,-9.460865l2.315769,-2.453267l0,4.268442c0,5.277993 -1.965069,13.251762 -4.140223,16.80001c-2.307449,3.764071 -10.216515,10.711991 -14.097621,12.384422c-3.477127,1.498361 -10.903157,1.93947 -14.872022,0.883408c-1.977848,-0.526272 -2.605555,-0.124174 -3.630373,2.325559c-0.681476,1.629006 -1.239051,3.946522 -1.239051,5.150015c0,1.366299 -0.65761,2.188165 -1.750833,2.188165c-1.298421,0 -1.552484,-0.54117 -0.98323,-2.094363l-0.000002,0l0.000001,-0.000002z" id="svg_11" stroke="#000" transform="rotate(-106 32.98258590698241,279.1708984375) "/>
  <!-- The 4th leaf -->
  <path fill="green" stroke="#000" stroke-width="1.5" d="m70.27598,259.69427c1.55856,-4.60509 3.69181,-8.50512 5.71533,-10.44883c2.16788,-2.08238 1.20606,-2.98565 -1.03028,-0.96757c-0.94085,0.84902 -1.20967,0.23254 -1.20967,-2.7742c0,-7.17382 4.12098,-11.61278 14.03626,-15.11929c8.3898,-2.96705 14.57523,-6.30369 17.13984,-9.24585l2.08984,-2.39751l0,4.17143c0,5.15804 -1.77335,12.95059 -3.7363,16.41819c-2.08233,3.67852 -9.21978,10.46853 -12.72224,12.10295c-3.1379,1.46431 -9.83944,1.8954 -13.4211,0.86333c-1.78488,-0.51431 -2.35135,-0.12135 -3.27619,2.27271c-0.61499,1.59198 -1.11816,3.85683 -1.11816,5.03297c0,1.33524 -0.59346,2.13843 -1.58002,2.13843c-1.17175,0 -1.40103,-0.52887 -0.88731,-2.04676l0,0z" id="svg_4" transform="rotate(26 88.51730346679695,240.2410278320312) "/>
  <!-- The 5th leaf -->
  <path fill="#409030" stroke-width="1.5" stroke-opacity="null" fill-opacity="null" d="m86.243392,193.941658c0.968838,-6.318605 2.294911,-11.669809 3.552775,-14.336766c1.347599,-2.85722 0.749715,-4.09659 -0.640443,-1.327596c-0.584857,1.16494 -0.751958,0.319066 -0.751958,-3.806452c0,-9.843156 2.561688,-15.933815 8.725245,-20.74508c5.215284,-4.071064 9.06028,-8.649238 10.654498,-12.686156l1.29909,-3.289607l0,5.723591c0,7.077306 -1.102356,17.769402 -2.322565,22.527278c-1.294423,5.047276 -5.731218,14.363801 -7.908425,16.606378c-1.950584,2.009165 -6.116408,2.600652 -8.342845,1.184569c-1.109525,-0.705683 -1.461654,-0.166505 -2.036551,3.118362c-0.382292,2.184349 -0.695077,5.291925 -0.695077,6.9057c0,1.832082 -0.368903,2.934129 -0.982175,2.934129c-0.728383,0 -0.870906,-0.72566 -0.551568,-2.808349l-0.000001,0l0,-0.000001z" id="svg_10" stroke="#000"/>
  <!-- The 6th leaf -->
  <path fill="#0f9f0f" stroke="#000" stroke-width="1.5" d="m217.27598,155.69427c1.55856,-4.60509 3.69181,-8.50512 5.71533,-10.44883c2.16788,-2.08238 1.20606,-2.98565 -1.03028,-0.96757c-0.94085,0.84902 -1.20967,0.23254 -1.20967,-2.7742c0,-7.17382 4.12098,-11.61278 14.03626,-15.11929c8.3898,-2.96705 14.57523,-6.30369 17.13984,-9.24585l2.08984,-2.39751l0,4.17143c0,5.15804 -1.77335,12.95059 -3.7363,16.41819c-2.08233,3.67852 -9.21978,10.46853 -12.72224,12.10295c-3.1379,1.46431 -9.83944,1.8954 -13.4211,0.86333c-1.78488,-0.51431 -2.35135,-0.12135 -3.27619,2.27271c-0.61499,1.59198 -1.11816,3.85683 -1.11816,5.03297c0,1.33524 -0.59346,2.13843 -1.58002,2.13843c-1.17175,0 -1.40103,-0.52887 -0.88731,-2.04676l0,0z" id="svg_12" transform="rotate(26 235.51730346679696,136.24102783203125) "/>
  <!-- The 7th leaf -->
  <path fill="#7fcf7f" stroke-width="1.5" d="m312.68669,166.223357c1.395307,-4.138524 3.305107,-7.643421 5.116671,-9.390203c1.940803,-1.871403 1.07973,-2.683158 -0.922362,-0.86954c-0.8423,0.763001 -1.082962,0.20898 -1.082962,-2.493131c0,-6.447002 3.689323,-10.436227 12.566015,-13.587473c7.511,-2.666442 13.04853,-5.665029 15.344507,-8.309103l1.870937,-2.154605l0,3.7488c0,4.635451 -1.587598,11.638496 -3.344937,14.754775c-1.864214,3.305829 -8.254043,9.407907 -11.389633,10.876735c-2.809217,1.315953 -8.808796,1.703367 -12.01529,0.775861c-1.597921,-0.462202 -2.105055,-0.109055 -2.933021,2.04245c-0.550572,1.430688 -1.001037,3.466074 -1.001037,4.523053c0,1.19996 -0.531297,1.921774 -1.414519,1.921774c-1.049014,0 -1.254277,-0.475287 -0.794368,-1.839392l0,0l-0.000001,-0.000001z" id="svg_14" transform="rotate(79.307373046875 329.0173034667968,148.74102783203128) " stroke="#000"/>
  <!-- The 8th leaf -->
  <path fill="#9fcf70" stroke-width="1.5" d="m371.944977,118.59459c1.159635,-3.752952 2.746865,-6.93131 4.25245,-8.515351c1.612996,-1.697051 0.89736,-2.433177 -0.766572,-0.788528c-0.700033,0.691915 -0.900046,0.18951 -0.900046,-2.260855c0,-5.846357 3.066186,-9.46392 10.443578,-12.321576c6.24237,-2.418019 10.844595,-5.137238 12.752775,-7.534973l1.55493,-1.953868l0,3.399537c0,4.203582 -1.319448,10.554178 -2.779967,13.380124c-1.549343,2.997837 -6.859911,8.531405 -9.465891,9.863388c-2.334732,1.19335 -7.320965,1.54467 -9.985873,0.703577c-1.328027,-0.419141 -1.749505,-0.098895 -2.437626,1.852162c-0.457579,1.297396 -0.831959,3.143152 -0.831959,4.101656c0,1.088164 -0.44156,1.742729 -1.175603,1.742729c-0.871832,0 -1.042426,-0.431006 -0.660197,-1.668022l0,0l0.000001,0z" id="svg_13" transform="rotate(26 385.5173034667968,102.74102783203122) " stroke="#000"/>
  <!-- The 9th leaf -->
  <path fill="#afbf7f" stroke-width="1.5" d="m455.35845,122.087287c0.996148,-2.804323 2.359605,-5.179283 3.652925,-6.362931c1.385588,-1.268086 0.770848,-1.818138 -0.658497,-0.589212c-0.60134,0.517019 -0.773154,0.141608 -0.773154,-1.689378c0,-4.368573 2.633902,-7.071722 8.971204,-9.207051c5.3623,-1.806815 9.315688,-3.8387 10.954849,-5.630357l1.335713,-1.459992l0,2.540237c0,3.141043 -1.133429,7.886403 -2.38804,9.998035c-1.330908,2.240068 -5.892776,6.374918 -8.131356,7.370217c-2.005576,0.891705 -6.288834,1.154226 -8.578038,0.525733c-1.140797,-0.313193 -1.50285,-0.073894 -2.09396,1.383991c-0.393066,0.969455 -0.714662,2.348662 -0.714662,3.064879c0,0.813109 -0.379309,1.302224 -1.009863,1.302224c-0.748923,0 -0.895463,-0.322063 -0.567122,-1.246395l0,0l0.000001,0z" id="svg_15" transform="rotate(79.307373046875 467.0173034667969,110.24102783203126) " stroke="#000"/>
  <!-- The 10th leaf -->
  <path fill="#ef8f6f" stroke-width="1.5" d="m523.952135,106.727259c0.817265,-2.12729 1.93588,-3.92887 2.99695,-4.826748c1.136762,-0.961939 0.632415,-1.379192 -0.540249,-0.446966c-0.493353,0.392198 -0.634319,0.107422 -0.634319,-1.281511c0,-3.313888 2.160922,-5.364425 7.360192,-6.984229c4.399357,-1.370598 7.642811,-2.911927 8.987617,-4.271032l1.095848,-1.107509l0,1.92695c0,2.382716 -0.929893,5.982411 -1.959204,7.584245c-1.09191,1.699257 -4.834575,4.835843 -6.671159,5.590844c-1.645417,0.676427 -5.159504,0.875568 -7.037618,0.398812c-0.935939,-0.237578 -1.232974,-0.056059 -1.717934,1.049858c-0.322484,0.735399 -0.586332,1.78163 -0.586332,2.324936c0,0.616803 -0.311187,0.987829 -0.828513,0.987829c-0.614432,0 -0.734656,-0.244306 -0.465279,-0.945478l0,0l0,-0.000001z" id="svg_16" transform="rotate(50 533.5173339843749,97.74099731445317) " stroke="#000"/>
 </g>
</svg>