<svg width="300" height="300" xmlns="http://www.w3.org/2000/svg">
 <!-- Created with Method Draw - http://github.com/duopixel/Method-Draw/ -->

 <g>
  <title>background</title>
  <rect x="-1" y="-1" width="302" height="302" id="canvas_background" fill="#d1ffd8"/>
  <g id="canvasGrid" display="none">
   <rect id="svg_1" width="100%" height="100%" x="0" y="0" stroke-width="0" fill="url(#gridpattern)"/>
  </g>
 </g>
 <g>
  <title>Layer 1</title>
  <path fill="#c3a0e5" stroke="#000" stroke-width="1.5" stroke-opacity="null" d="m53.68478,75.40798c-1.01149,0 -1.5314,-0.97544 -1.5314,-2.14517c0,-0.97521 0.25991,-1.92203 1.0115,-1.92203c0.5199,0 1.30256,0.94682 1.56247,1.92203c0.51991,1.4199 0,2.14517 -1.04257,2.14517zm172.90461,55.65745c2.31413,0 2.83396,0.25016 1.5314,1.92181c-0.75158,1.16973 -2.31406,2.14494 -3.06564,2.14494c-0.78257,0 -1.56248,-0.97521 -1.56248,-2.14494c0,-1.19843 1.04265,-1.92181 3.09672,-1.92181zm-161.56316,-68.0816c-2.31405,-0.47329 -2.57405,-2.86999 0,-3.5936c1.30249,-0.22283 2.05415,0.47322 2.05415,1.92203c0,1.19828 -0.75166,1.89463 -2.05415,1.67157zm-28.84525,75.71349c3.09671,-0.69643 3.09671,-1.19699 2.05414,-2.84137c-0.7799,-1.19699 -1.03981,-2.64565 -0.51991,-3.11903c0.25992,-0.7249 1.56248,0 2.31406,1.42005c1.04257,1.92203 1.8224,2.17371 3.87654,0.97521c1.27432,-0.72354 2.31406,-1.19812 2.31406,-0.47322c0,0.47322 0.78265,0 1.79415,-0.97522c1.56256,-1.42004 1.82247,-4.54035 0.25999,-6.21207c-1.27149,-1.42005 -7.72483,-0.94667 -9.51898,0.72354c-1.03981,1.1985 -1.82247,0.94818 -2.83397,-1.19676c-1.56247,-3.5665 -1.56247,-4.06721 2.05407,-4.29004c3.09671,0 3.09671,0 0.51991,-1.44866c-1.29973,-0.69643 -2.57398,-2.14495 -2.57398,-3.09177c0,-2.39654 3.58831,-3.81659 5.15078,-2.14487c0.51991,0.69628 1.53149,1.42005 2.57405,1.42005c2.05415,0 11.86129,-8.10557 11.86129,-9.77729c0,-0.72482 1.01432,-1.19805 2.05414,-0.72482c1.27424,0.2516 3.58838,-0.47323 5.93351,-1.67172c3.32556,-1.92189 3.32556,-2.14495 1.53141,-5.26397c-1.27149,-2.14495 -2.83397,-2.86999 -6.45059,-2.86999c-4.10821,0 -5.15078,0.47344 -6.42227,3.34344c-0.52274,1.92181 -2.08514,3.34193 -3.09671,3.34193c-1.79415,0 -2.31406,-2.14366 -0.51991,-3.34193c0.77982,-0.47345 1.29973,-2.14495 1.29973,-3.81667c0,-2.61847 -0.51991,-3.09176 -3.87654,-2.39526c-3.35662,0.47323 -3.35662,0.25017 -2.57405,-3.34359c0.51991,-2.14487 1.27149,-4.06675 1.79423,-4.28981c0.51991,-0.25016 1.03974,-2.39526 1.03974,-4.5402c0,-4.29027 1.53423,-5.01381 4.37103,-1.92204c1.29965,1.67165 2.08239,1.92204 2.57397,0.47322c0.51991,-0.94667 2.3423,-1.16973 5.1791,-0.6965c3.8483,0.94682 4.10821,0.6965 3.5883,-2.14495c-0.25991,-1.67149 -0.52266,-3.59353 -0.78257,-4.06675c0,-0.72376 -1.27149,-1.67172 -2.80573,-2.39549c-3.09671,-1.19804 -3.87653,-4.06675 -1.04257,-4.06675c0.78266,0 1.53416,-0.47345 1.53416,-1.42155c0,-0.72377 1.56256,-1.19699 3.61662,-0.97537c2.8368,0.2516 4.3682,-0.69613 8.24474,-5.7097c2.8368,-3.59376 4.89086,-5.51565 5.15086,-4.54043c0.25991,1.19698 1.56247,1.89326 2.83672,1.89326c2.05414,0 2.31413,-0.69628 1.56255,-3.8153c-0.26274,-2.14509 -1.56255,-4.76326 -2.34513,-5.96176c-2.31414,-2.64671 -2.31414,-5.73847 0,-4.79203c1.82239,0.94818 7.49308,-1.67021 7.49308,-3.34185c0,-0.7249 0.75441,-1.19828 1.79415,-1.19828c1.04265,0 1.53424,1.44859 1.53424,3.34337c0,2.39526 0.5199,3.34208 1.82247,2.64558c1.01149,-0.50064 1.79423,-1.92204 1.79423,-2.86864c0,-2.87014 8.24466,-7.88379 10.29872,-6.46246c0.78273,0.4736 1.56248,0 1.82538,-1.6715c0.7515,-3.34336 5.40786,-5.96175 7.46193,-4.29003c1.04265,0.69628 2.05422,0.47345 2.31697,-0.25017c0.51983,-0.9481 2.57397,-1.67172 4.88803,-1.89493c2.31406,-0.25016 5.41077,-1.19827 6.71333,-2.17348c4.88803,-3.09177 9.77898,-2.86871 11.83304,0.47488c1.30256,2.39511 1.82239,2.39511 1.82239,0.72339c0,-2.1451 1.01441,-2.39526 7.205,-1.6715c9.80722,0.94811 11.34146,0.94811 14.95808,-0.25039c2.31406,-0.69643 3.09663,-0.47337 3.09663,1.44844c0,1.1985 0.75166,2.14517 1.79423,2.14517c0.77982,0 1.53141,-0.69651 1.53141,-1.4214c0,-1.92181 4.13936,-2.86864 7.7559,-1.92181c2.80572,0.9481 3.06564,1.19804 2.31406,7.63317c-0.25992,3.84392 0,6.46232 0.49167,6.46232c0.51982,0 1.04256,-1.67172 1.04256,-4.06698c0,-4.03972 2.83397,-5.71009 3.87654,-2.39534c0.25999,1.19706 1.0115,0.72362 1.5314,-1.16965c1.30265,-5.01509 4.13937,-2.39677 3.35663,3.09176c-0.77974,4.54021 -0.77974,4.54021 1.53432,2.86849c1.30248,-0.72362 2.31398,-2.61817 2.31398,-3.81531c0,-1.19835 0.78273,-2.61967 1.82255,-3.12038c2.05398,-0.94645 4.37095,2.6458 3.61654,5.26525c-0.25992,1.19721 -0.25992,2.14509 0.49159,2.14509c0.52274,0 1.04264,-0.69628 1.04264,-1.19827c0,-0.69643 1.27425,-0.94682 2.83672,-0.47322c3.35388,0.72361 3.84547,2.64542 1.01158,3.81515c-0.75158,0.50199 -1.53424,1.67172 -1.53424,2.64709c0,1.67172 0.52266,1.67172 3.35663,0c4.62812,-2.86863 6.68218,-2.64709 7.46492,0.47322c0.51983,1.67172 1.53415,2.39662 2.57397,1.67172c1.04257,-0.25031 3.35663,0.7249 5.15086,2.39526c1.56247,1.42133 3.87653,2.61839 4.9191,2.61839c1.53424,0 1.53424,1.19843 1.0115,4.54164c-0.51983,3.59376 -0.51983,4.06698 1.04265,2.61854c2.05406,-2.36822 2.83396,-2.14532 3.58838,1.19676c0.25991,1.67173 2.0823,2.87 4.13645,3.59361c2.31406,0.47489 3.58838,1.67165 3.58838,3.09305c0,1.44859 0.77974,3.11903 1.56247,4.06713c2.05415,1.6715 1.53141,6.68515 -0.78273,8.35679c-0.77974,0.50071 -1.79407,0.25039 -2.05406,-0.47322c-0.51983,-0.72505 -2.31406,-0.72505 -5.67077,0c-5.41077,1.67021 -6.42227,2.14494 -5.15078,4.31714c0.78266,1.42005 9.78173,0.94683 14.69808,-0.72489c1.53424,-0.72369 2.05415,0 2.05415,3.34344c0,2.39511 -0.51991,4.29003 -1.29974,4.29003c-0.52274,0 -1.01432,0.72354 -1.01432,1.92181c0,2.86985 1.27432,2.61817 4.63095,-0.72376c1.79131,-1.92181 2.83388,-2.39654 4.1082,-1.19805c1.29974,1.19805 1.56248,1.19805 1.56248,-0.72376c0,-1.17116 -0.52274,-2.14494 -1.30248,-2.14494c-0.49167,0 -1.01441,-0.94811 -1.01441,-1.89493c0,-1.19812 0.75441,-2.14495 1.79415,-2.14495c0.78266,0 1.82247,0.47323 1.82247,1.16973c0,0.7252 1.01433,1.67165 2.31689,1.92204c1.7914,0.72505 2.31406,1.67172 2.05407,4.54035c-0.52266,5.48816 0.51999,7.16003 4.3682,6.21336c1.82247,-0.47488 2.83389,0 2.05414,0.94667c-0.23167,0.47323 0,1.67173 0.51991,2.17206c2.08514,1.42148 1.30249,4.76363 -1.01157,4.76363c-2.83672,0 -3.61662,1.19805 -2.08231,3.34322c1.03974,1.19827 1.82239,1.42004 2.83389,0.47337c2.34513,-2.39526 2.8368,-0.47337 3.09671,9.08207c0,4.79037 0.51991,8.60718 1.03982,8.60718c1.27424,0 0.78265,5.26525 -1.03982,7.4102c-1.01433,1.19698 -1.01433,2.36664 -0.25991,3.34185c1.82239,2.14517 0,8.35725 -2.31697,8.35725c-2.05399,0 -5.9306,4.5402 -5.9306,6.68529c0,2.61983 -3.32556,0 -4.10821,-2.86871c-0.77983,-2.61831 -0.77983,-2.61831 -1.30257,-0.72489c-0.49158,2.17356 2.3169,8.85885 4.65927,10.75341c1.53416,1.44881 -1.30256,3.84392 -3.3567,2.8687c-1.04265,-0.47322 -1.53424,-1.89326 -1.53424,-3.34193c0,-4.06675 -6.45059,-14.3187 -11.34145,-18.16247c-2.60221,-1.89493 -4.91635,-4.03987 -4.91635,-4.76341c0,-1.44866 -8.24749,-5.96176 -12.87561,-7.41035c-2.57688,-0.72489 -3.35671,-0.47329 -3.35671,1.44859c0,1.42005 -0.49158,1.89327 -1.53423,1.42005c-2.31406,-0.94683 -3.35663,1.1985 -1.30249,3.34344c2.83672,2.61832 2.34514,5.73847 -0.75158,4.5402c-2.08238,-0.72361 -2.34238,-0.47345 -1.56247,3.59368c0.25991,2.368 0.78265,5.48816 0.78265,6.90821c0,1.44866 0.51983,2.39548 1.03974,2.39548c0.75449,0 1.01433,-0.47345 0.49166,-1.19699c-0.25991,-0.72504 0.26283,-1.4214 1.30249,-1.4214c0.78273,0 1.53423,0.94796 1.53423,1.89463c0,0.97536 -1.01424,1.92181 -2.83672,1.67187c-1.5314,0 -2.83396,-0.69651 -2.83396,-1.16988c0,-2.17371 -6.94501,-16.96563 -8.99908,-19.13784c-2.31413,-2.36822 -0.7799,-3.09176 -19.06636,8.13389c-2.83388,1.67172 -5.9306,5.26525 -7.49307,7.88379c-1.27432,2.61817 -3.32839,5.26525 -4.36821,5.73848c-1.04256,0.47345 -4.89086,4.29003 -8.24757,8.35701c-14.43816,17.9108 -12.09303,20.05589 -11.08145,56.63282c4.37095,27.71647 4.37095,27.71647 4.37095,27.71647c-10.30163,0 -10.30163,0 -10.30163,0c-8.50466,0 -8.50466,0 -8.50466,0c0.77983,-25.57297 0.77983,-25.57297 0.77983,-25.57297c0.51983,-2.1435 0.78265,-6.46209 1.04265,-8.85757c0.25991,-1.42133 -7.23325,-7.6334 -6.97325,-9.0533c0,-1.19827 7.75307,2.14517 7.75307,0.94667c1.27424,-17.43757 0,-31.31023 -3.35671,-38.69324c-0.77982,-4.54043 -7.23316,-19.13641 -8.24466,-19.13641c-0.25999,0 -2.08238,-1.42132 -3.87653,-3.09304c-3.0968,-3.11888 -4.36821,-3.34209 -21.64317,-4.29004c-18.54637,-0.97393 -18.54637,-0.97393 -18.54637,-0.97393c-4.39645,3.34208 -4.39645,3.34208 -4.39645,3.34208c-2.57397,2.17349 -5.15078,3.59361 -5.90244,3.59361c-1.56247,0 -8.01581,5.01486 -10.82154,7.88334c-0.25991,0 -0.51983,-0.24994 -0.51983,-0.47322c-0.25999,0 -0.25999,0 -0.25999,-0.25032c-0.25992,-0.69628 -0.52266,-1.42133 -1.04257,-2.14494c1.56248,-1.19828 2.83672,-1.92317 3.35663,-1.6715c0.77982,0.47323 1.53423,0 1.53423,-1.1985c0,-1.19698 -1.53423,-1.67164 -5.64244,-1.19698c-4.91918,0.72376 -6.19343,0.97393 -6.97325,3.81538c-1.27432,1.44858 -1.53424,3.59368 -0.77982,5.2654c-0.26283,2.14494 -0.26283,3.59353 0,3.59353c0.25991,0 0.51983,-0.47322 1.29973,-0.97521c0,0.25039 0.25991,0.50199 0.52266,0.72489c-2.57681,0.72362 -3.87937,2.86871 -3.61662,5.01366c-1.30249,0.97521 -2.57681,1.44858 -4.13921,2.1722c0,0 0,-0.25017 -0.23175,-0.25017c1.01433,-2.14494 1.53424,-4.54043 1.79415,-8.13396c0.52274,-4.03987 0.25992,-6.68529 -0.51983,-6.68529c-0.5199,0 -1.04256,0.97521 -1.04256,2.39503c0.25983,1.1985 -0.23176,2.39549 -1.27157,2.61854c-0.78266,0.25017 -1.30249,-0.22305 -1.30249,-1.42004c0,-2.86999 -1.01157,-2.86999 -3.32846,-0.2516c-1.03974,0.97521 -3.09388,2.14509 -4.88803,2.64708c-2.34514,0.69628 -3.09672,0.22284 -4.13929,-2.39548c-0.77982,-2.14495 -1.29973,-4.54164 -0.77982,-5.48831c0.25992,-1.19827 0.25992,-2.1722 -0.75158,-2.1722c-2.8368,0 -0.78265,-3.81682 2.57397,-4.54172zm22.16299,-54.93255c-1.56247,-0.25016 -2.8368,-0.94667 -3.35662,-1.92188c-0.26,-1.42133 -0.51991,-1.42133 -0.51991,0c0,0.97521 -1.04257,1.67172 -2.05415,1.92188c-1.82239,0 -1.82239,0.25032 0.26,1.1985c1.27141,0.47322 2.57397,1.19676 2.83388,1.19676c0.23168,0 1.53424,-0.72354 2.8368,-1.19676c2.31406,-1.1985 2.31406,-1.1985 0,-1.1985zm204.32384,38.47019c0.49166,0.47345 1.01157,-0.2516 1.01157,-1.44859c0,-0.94795 -0.51991,-1.89478 -1.01157,-1.89478c-0.78258,0 -1.30249,0.47338 -1.30249,1.16973c0,0.72505 0.51991,1.70027 1.30249,2.17364zm-1.8224,2.14509c-0.25991,-0.72504 -1.53423,-1.67164 -2.5768,-1.67164c-0.75158,0 -1.27149,0.9466 -0.75158,1.67164c0.23167,0.72362 1.27424,1.19707 2.31406,1.19707c1.01433,0 1.27424,-0.47345 1.01433,-1.19707l-0.00001,0zm-2.31405,10.75213c0.77982,0 1.82239,-0.25016 1.82239,-0.47322c0,-0.50199 -1.04257,-0.97522 -1.82239,-1.44866c-1.01433,-0.47338 -1.79423,-0.22306 -1.79423,0.47344c0,0.7249 0.7799,1.44844 1.79423,1.44844zm2.05414,-22.70267c1.03974,-0.4736 1.5624,-1.19843 1.29973,-1.89493c-0.7799,-1.69876 -5.1481,-1.69876 -5.1481,0c0,1.89493 1.53148,2.61854 3.84837,1.89493zm-14.14993,-17.91246c-1.30256,0.72505 -2.08239,2.14509 -1.82255,2.86999c1.30256,1.8935 2.83688,1.42005 4.13653,-1.67172c1.27432,-2.86999 0.75441,-3.34321 -2.31398,-1.19827zm-4.91918,36.79854c6.71325,6.43491 6.97324,6.6853 6.97324,4.54036c0,-1.19699 -0.5199,-2.1722 -1.30256,-2.1722c-0.7515,0 -2.05406,-1.1985 -2.83389,-2.61832c-0.75166,-1.42156 -2.31406,-2.87022 -3.58838,-2.87022c-2.3423,0 -2.3423,0.25168 0.75158,3.12038l0.00001,0zm-5.40802,-11.25427c1.55972,0 2.31413,-0.47322 1.29981,-0.69635c-0.77983,-0.47337 -2.05415,-0.47337 -2.83397,0c-0.78273,0.22313 0,0.69635 1.53416,0.69635zm-7.46484,-32.47996c0.77982,0.72377 3.09388,1.67044 5.14795,2.14517c3.6167,0.72354 3.87661,0.72354 1.82247,-1.19827c-2.3423,-2.36823 -8.76457,-3.09177 -6.97042,-0.9469zm-15.71249,-39.63969c-0.77982,0.69628 -1.03973,2.14494 -0.77982,3.09154c0.51991,1.92204 2.05415,0.25039 2.05415,-2.61832c0,-1.44866 -0.26,-1.67172 -1.27433,-0.47322zm7.72483,51.59047c2.05415,1.19683 2.8368,1.19683 3.87945,-0.47474c2.05407,-2.61846 0.7515,-3.8153 -3.09679,-2.14486c-3.09671,1.17101 -3.09671,1.17101 -0.78266,2.6196zm-5.14794,-11.95078c3.87653,-2.61809 3.87653,-2.61809 0.77982,-2.61809c-2.08238,0 -3.61662,0.94645 -4.39644,2.61809c-0.49167,1.67044 -1.01433,2.61854 -0.75442,2.61854c0,0 2.05415,-1.42148 4.37104,-2.61854zm-5.67077,38.72058c1.79132,2.61854 4.88811,2.61854 3.87654,-0.25031c-0.25992,-0.94796 -0.52266,-2.14495 -0.52266,-2.39662c0,-0.22306 -1.03982,-0.22306 -2.31406,0.25167c-2.08239,0.47338 -2.08239,1.19699 -1.03982,2.39526zm-7.98757,-9.8056c2.05406,2.61846 3.09671,2.86863 5.41077,0.94682c1.53423,-1.19699 1.53423,-1.19699 0,-1.42005c-0.77982,0 -2.83397,-0.25167 -4.62812,-0.72504c-2.5768,-0.94668 -2.5768,-0.94668 -0.78265,1.19827zm-0.25992,-26.04627c1.30249,0 2.83672,-3.81659 2.05415,-5.01358c-1.01158,-1.19827 -3.09396,0.72354 -3.09396,2.86864c0,1.19834 0.5199,2.14494 1.03981,2.14494zm-12.61294,16.24059c-1.56248,0.97521 -1.30248,1.19849 0.75166,1.19849c1.30248,0 2.83389,-0.47488 3.35663,-1.19849c0.77974,-1.89456 -1.79423,-1.89456 -4.10829,0zm0.25999,21.03133c0.23168,0.25167 1.0115,-0.25032 1.79415,-1.42005c0.77975,-0.97521 3.09396,-2.17348 4.88804,-2.64693c2.31406,-0.72377 3.3567,-1.89342 3.3567,-3.59369c0,-4.03821 -3.61662,-2.84144 -7.46499,2.3967c-1.5624,2.64565 -2.83389,4.79074 -2.5739,5.26397zm-2.83672,-11.0026c2.31398,-2.61816 2.31398,-3.09305 0.49151,-3.81666c-2.05406,-0.94682 -3.58547,1.1985 -3.58547,5.01365c-0.26274,2.86999 -0.26274,2.86999 3.09396,-1.19699zm-4.13653,-28.19113c0.25992,1.92181 0.77983,1.67164 2.31398,-1.89478c1.82255,-3.81538 1.82255,-4.31737 0.26,-4.31737c-1.0115,0 -2.05415,0.72376 -2.31406,1.92211c-0.51991,0.9466 -0.51991,3.12031 -0.25992,4.29004zm-1.27432,-19.58274c0,0.97393 0.49159,3.34208 1.01433,5.01365c0.77982,3.34336 0.77982,3.34336 1.56248,0.47337c1.01149,-2.86848 0,-7.15852 -1.56248,-7.15852c-0.75441,0 -1.01433,0.72339 -1.01433,1.6715zm-18.05195,7.88228c-1.27424,1.67172 -1.27424,3.34344 -0.26275,8.35702c0.52274,3.5936 1.82531,7.18729 2.57681,7.88379c1.30256,1.19828 1.56247,0 1.82239,-7.40906c0,-9.05352 -1.30248,-11.92329 -4.13645,-8.83175zm2.31406,25.32265c0.25999,0.47345 0.77982,-0.47337 0.51991,-1.8947c0,-1.44866 -0.25992,-1.67172 -0.77983,-0.72361c-0.23175,0.94667 -0.23175,2.14494 0.25992,2.61831zm9.28731,-22.45266c-0.25992,0.47345 -0.25992,3.81682 0.5199,7.40906c0.78266,6.21336 1.01433,6.46353 1.27433,1.92317c0.25991,-7.41034 -0.26,-11.00387 -1.79423,-9.33223zm-8.7674,67.38517c1.56247,-2.87 4.13653,-7.66074 5.93068,-10.53051c2.05406,-3.09199 3.35662,-7.15874 3.87653,-11.22572c0.75442,-6.43513 0.75442,-6.43513 0.75442,-6.43513c-3.09672,3.56642 -3.09672,3.56642 -3.09672,3.56642c-1.53423,1.92204 -2.57405,4.06698 -2.57405,4.79074c0,1.89463 -4.89086,13.84518 -6.4251,15.99027c-0.77982,1.19677 -2.08238,3.84393 -2.31406,5.73848c-1.30256,5.48717 1.01433,4.54035 3.8483,-1.89455zm-18.28646,24.5976c0.78265,4.76326 0.78265,4.76326 3.3567,-5.48838c1.53424,-5.51572 3.8483,-14.34581 5.41078,-19.83427c2.05406,-6.93569 2.83672,-12.67417 2.83672,-20.78079c0,-10.52945 -0.26275,-10.7525 -2.31682,-9.55401c-4.65643,3.09169 -7.23324,11.69888 -8.27305,28.41269c-0.49159,8.60884 -1.01433,17.21602 -1.53416,19.1108c-0.25999,1.92189 0,5.51557 0.51983,8.13396zm0.52274,-61.14598c1.01149,2.36815 2.05414,4.29004 2.05414,4.29004c0.25992,0 1.53133,-1.44867 2.57397,-3.34322c1.30249,-1.67036 3.35663,-3.59225 4.13653,-4.28875c3.0684,-2.17349 3.84822,-8.85879 1.27425,-13.39914c-2.05415,-4.06698 -7.72483,-8.60869 -8.76748,-7.16003c-0.51983,0.47338 -1.27141,5.01509 -1.79415,10.27906c-1.03974,7.88356 -1.03974,10.28011 0.52274,13.62204zm-1.56248,-54.71062c0.51991,0.47473 1.03974,0.22305 1.03974,-0.50049c0,-0.9481 -0.51983,-1.89493 -1.03974,-2.36822c-0.78265,-0.50192 -1.27432,-0.25032 -1.27432,0.6965c0,0.72362 0.49167,1.67172 1.27432,2.1722l0,0.00001zm-83.47288,64.23736c3.5883,0.2516 3.5883,0.2516 3.5883,0.2516c3.61662,0 7.23324,-3.09304 7.23324,-5.73847c0,-1.67172 -0.25991,-1.67172 -10.82154,5.48687zm1.53424,-6.68537c0,0.72528 0.5199,1.44867 1.30256,1.44867c1.27149,0 4.88803,-4.29004 4.10821,-5.01358c-0.78266,-0.97521 -5.41077,2.14487 -5.41077,3.56491zm2.83672,-16.46341c3.87661,4.76454 5.67076,5.23791 7.72483,2.14486c2.08238,-2.86848 0.25999,-4.79051 -5.93344,-5.48702c-5.14802,-0.72505 -5.14802,-0.72505 -1.79139,3.34216zm-2.83672,-13.39793c0,0.50048 1.82239,1.67021 3.87653,2.64542c9.51906,4.54043 11.34145,4.54043 11.08146,0.22329c0,-2.61855 -3.87654,-8.35717 -5.41077,-8.35717c-1.82239,0 -9.54722,4.54035 -9.54722,5.48846zm13.91825,33.92855c2.83397,0 3.09388,-0.72377 0.77983,-1.89349c-1.04257,-0.2516 -2.05415,0 -2.31406,0.6965c-0.52274,0.72339 0.25991,1.19699 1.53423,1.19699zm2.05415,-56.1309c-1.79423,-1.19842 -4.11112,-1.67164 -5.15086,-1.19842c-1.79415,0.94811 -1.53424,1.19842 1.03974,1.92181c1.27432,0.47489 3.87944,0.94818 5.15085,1.17124c1.53424,0 1.53424,-0.47473 -1.03973,-1.89463zm-0.23168,8.60719c1.53133,0 1.79415,-0.25032 0.75158,-0.97393c-0.75158,-0.22291 -1.79422,-0.22291 -2.31413,0.25039c-0.25992,0.47322 0.51991,0.94682 1.56255,0.72354zm1.53133,5.48853c-3.61654,0 -3.61654,0.22283 -1.53133,2.14487c2.57398,2.14494 3.32556,2.39511 4.36821,0.94667c1.79407,-1.89349 0.51982,-3.09154 -2.83688,-3.09154zm5.15093,-26.99309c-1.04264,-1.19827 -1.30256,0.94683 -0.7799,3.56514c0.25992,1.67172 1.29973,3.12016 1.82247,3.12016c1.0115,0 0.25992,-5.26525 -1.04256,-6.6853l-0.00001,0zm8.24466,31.53307c-0.51982,0.22328 0.78266,1.67172 2.3169,2.87014c1.56247,1.19699 2.83388,1.67029 2.83388,0.94667c0,-1.67149 -4.36812,-4.7918 -5.15077,-3.81681l-0.00001,0zm-6.45058,1.67172c-2.31406,1.67187 -1.0115,5.96168 2.34238,6.68545c1.79415,0.4733 4.63094,2.39533 6.4251,4.28988c1.56247,1.92204 2.83388,2.64709 2.83388,1.92204c0,-2.39526 -10.2988,-13.87258 -11.60136,-12.89737zm10.56163,19.83449c-1.53416,-3.84535 -3.32839,-5.73885 -6.6851,-6.93712c-2.57397,-0.94667 -5.15078,-1.44844 -5.9306,-1.19684c-0.78265,0.25017 2.31406,3.34193 6.71334,6.93554c8.24466,6.21208 8.24466,6.21208 5.90236,1.19842zm13.68375,-36.79869c-0.51991,0 -1.04265,0.94682 -1.04265,1.89349c0,1.19828 0.52274,1.92204 1.04265,1.92204c0.75158,0 1.27432,-0.72376 1.27432,-1.92204c0,-0.94667 -0.52274,-1.89349 -1.27432,-1.89349zm-2.3423,19.58274c0,1.6715 4.39644,0.47338 6.19059,-1.67172c2.57405,-3.59353 2.31406,-4.54035 -1.04257,-4.54035c-2.31406,0 -5.14802,3.34351 -5.14802,6.21207zm7.49315,-51.59069c-0.78265,3.09177 -1.30256,5.71008 -1.04257,5.96176c0.78258,0.94682 2.8368,-6.21192 2.8368,-9.08192c0,-1.19698 -0.78273,0.25168 -1.79423,3.12016zm13.3956,48.24725c-1.30256,0 -2.31414,0.47489 -2.31414,1.42133c0,0.72377 0.75158,1.1985 1.53141,1.1985c1.04256,0 2.05414,-0.47473 2.31689,-1.1985c0.5199,-0.94644 -0.26275,-1.42133 -1.53416,-1.42133zm-3.09679,44.90517c1.53423,4.31866 3.84829,8.35702 5.15085,9.33223c1.30257,0.72377 3.87654,4.06713 5.41078,7.41035c1.53423,3.34208 3.09671,5.96047 3.3567,5.96047c1.27141,0 -1.30256,-21.978 -3.09671,-28.66458c-1.56256,-5.73719 -2.05422,-11.00259 -1.79423,-19.35961c0.23167,-6.21192 0,-11.70038 -0.51983,-12.17368c-0.25999,-0.47338 -2.05414,-0.47338 -3.61662,0c-2.8368,0.94667 -3.09671,1.67172 -3.09671,6.93697c0,4.03844 -0.51999,6.21207 -1.79423,7.15852c-3.61654,2.14517 -3.35663,14.31877 0,23.39933zm-7.46484,-32.00644c-0.51991,-3.59361 -1.03974,-4.06698 -3.87654,-4.06698c-3.3567,0 -3.3567,0.25032 -3.09671,5.26397c0,3.09305 0.52266,6.68658 0.78258,8.35694c0.25999,1.67172 1.27432,3.34322 2.31413,3.59361c2.05407,1.19842 4.36813,-7.15852 3.87654,-13.14754zm-3.87654,24.12287c-2.31413,-2.86871 -3.87653,-5.96047 -4.10828,-6.6853c0,-0.94667 -1.30249,-3.34193 -2.83397,-5.48702c-1.56248,-2.14494 -3.35663,-4.79188 -4.13928,-5.7387c-2.57398,-3.34322 -2.05415,-0.47322 0.78265,6.93569c1.79415,5.01486 4.88811,9.55529 8.50465,13.37187c6.68502,6.46224 7.46492,5.2642 1.79423,-2.39654zm-4.10828,11.72749c2.80572,0 2.57405,-0.25016 -1.30249,-4.06675c-2.57405,-2.39549 -4.3682,-5.0138 -4.3682,-6.21215c0,-0.9466 -3.35671,-4.3173 -7.23316,-7.40906c-3.84838,-3.12009 -7.465,-6.21185 -7.98483,-7.15981c-0.52274,-1.19698 -0.78265,-1.19698 -0.78265,0.22306c0,1.44866 -1.27149,1.67149 -5.41078,0.94667c-2.83396,-0.47345 -5.14802,-0.47345 -5.14802,-0.22177c0,0.47337 1.03974,3.34208 2.08238,6.21185c1.79423,4.76348 2.57398,5.73885 8.24474,7.63219c3.58838,1.19827 9.25899,4.06691 12.87561,6.21185c3.35671,2.17371 7.46492,3.84392 9.02739,3.84392l0.00001,0zm-40.21771,8.10663c1.04257,0 2.57681,-0.47322 3.61655,-1.19805c1.79422,-1.67043 0.26282,-1.67043 -3.09389,0c-1.53423,0.72483 -1.79415,0.94788 -0.52266,1.19805zm-2.83396,-5.96168c2.57405,-0.97378 10.82154,-1.92189 18.3147,-1.92189c14.14717,-0.22306 16.98389,-0.94644 11.31313,-2.39526c-1.79407,-0.47322 -5.90236,-1.67172 -9.25899,-2.86871c-5.93068,-2.14494 -18.05479,-1.42133 -19.32628,0.97416c-0.26274,0.47451 -1.56247,0.72482 -2.83672,0.47451c-2.57405,-0.7249 -5.15085,1.19714 -5.93068,5.0138c-1.04256,3.09154 0.77983,3.34321 7.72483,0.72339l0.00001,0zm-20.60052,5.48846c0.51991,1.92203 3.09671,2.14494 5.15086,0.47322c1.27141,-0.9466 1.27141,-1.41982 0,-2.86848c-1.04257,-1.42156 -1.79416,-1.42156 -3.35663,-0.22306c-1.04257,0.69651 -1.79423,1.89349 -1.79423,2.61832zm-8.24474,16.71403c1.01158,0 1.53148,0.72377 1.01158,2.1451c-0.23176,0.97521 -1.01158,1.92188 -1.53424,1.92188c-0.77982,0 -1.27149,-0.94667 -1.27149,-1.92188c0,-1.16973 0.75158,-2.1451 1.79415,-2.1451z" id="svg_3"/>
  <text fill="#764abc" stroke="#000" stroke-width="0" x="20.375" y="278.453125" id="svg_4" font-size="24" font-family="'Courier New', Courier, monospace" text-anchor="start" xml:space="preserve" font-weight="bold">Cottage Lake Seeds</text>
  <path fill="#c3a0e5" stroke="#000" stroke-width="1.5" stroke-opacity="null" d="m120.10488,90.17925c-0.00643,0 -0.00973,-0.00646 -0.00973,-0.01421c0,-0.00645 0.00165,-0.01272 0.00642,-0.01272c0.00331,0 0.00828,0.00626 0.00993,0.01272c0.00331,0.0094 0,0.01421 -0.00662,0.01421zm1.09897,0.36854c0.01471,0 0.01801,0.00165 0.00973,0.01272c-0.00478,0.00775 -0.01471,0.01421 -0.01948,0.01421c-0.00498,0 -0.00994,-0.00646 -0.00994,-0.01421c0,-0.00793 0.00663,-0.01272 0.01969,-0.01272zm-1.02689,-0.45081c-0.0147,-0.00314 -0.01636,-0.01901 0,-0.0238c0.00828,-0.00147 0.01306,0.00314 0.01306,0.01273c0,0.00793 -0.00478,0.01255 -0.01306,0.01107zm-0.18333,0.50134c0.01968,-0.00461 0.01968,-0.00792 0.01305,-0.01881c-0.00496,-0.00793 -0.00661,-0.01752 -0.0033,-0.02065c0.00165,-0.0048 0.00993,0 0.01471,0.0094c0.00662,0.01273 0.01158,0.01439 0.02463,0.00646c0.0081,-0.00479 0.01471,-0.00794 0.01471,-0.00314c0,0.00314 0.00498,0 0.01141,-0.00645c0.00993,-0.00941 0.01158,-0.03007 0.00165,-0.04114c-0.00808,-0.0094 -0.0491,-0.00627 -0.0605,0.00479c-0.00661,0.00794 -0.01159,0.00628 -0.01802,-0.00792c-0.00993,-0.02362 -0.00993,-0.02693 0.01306,-0.02841c0.01968,0 0.01968,0 0.0033,-0.00959c-0.00826,-0.00461 -0.01636,-0.0142 -0.01636,-0.02047c0,-0.01587 0.02281,-0.02527 0.03274,-0.0142c0.0033,0.00461 0.00973,0.0094 0.01636,0.0094c0.01306,0 0.07539,-0.05367 0.07539,-0.06474c0,-0.0048 0.00645,-0.00793 0.01306,-0.0048c0.00809,0.00167 0.0228,-0.00313 0.03771,-0.01107c0.02114,-0.01273 0.02114,-0.0142 0.00973,-0.03486c-0.00808,-0.0142 -0.01801,-0.019 -0.041,-0.019c-0.02611,0 -0.03274,0.00314 -0.04082,0.02214c-0.00332,0.01272 -0.01325,0.02213 -0.01968,0.02213c-0.0114,0 -0.01471,-0.0142 -0.0033,-0.02213c0.00495,-0.00314 0.00826,-0.0142 0.00826,-0.02527c0,-0.01734 -0.00331,-0.02047 -0.02464,-0.01586c-0.02133,0.00313 -0.02133,0.00165 -0.01636,-0.02214c0.0033,-0.0142 0.00808,-0.02693 0.0114,-0.02841c0.00331,-0.00165 0.00661,-0.01586 0.00661,-0.03006c0,-0.02841 0.00975,-0.0332 0.02778,-0.01273c0.00826,0.01107 0.01324,0.01273 0.01636,0.00314c0.00331,-0.00627 0.01489,-0.00775 0.03292,-0.00462c0.02446,0.00627 0.02611,0.00462 0.02281,-0.0142c-0.00165,-0.01107 -0.00332,-0.02379 -0.00498,-0.02693c0,-0.00479 -0.00808,-0.01107 -0.01783,-0.01586c-0.01968,-0.00793 -0.02464,-0.02693 -0.00662,-0.02693c0.00497,0 0.00975,-0.00313 0.00975,-0.00941c0,-0.00479 0.00993,-0.00793 0.02298,-0.00646c0.01803,0.00167 0.02777,-0.00461 0.05241,-0.0378c0.01803,-0.0238 0.03108,-0.03653 0.03273,-0.03007c0.00166,0.00793 0.00994,0.01254 0.01803,0.01254c0.01306,0 0.01471,-0.00461 0.00994,-0.02527c-0.00167,-0.0142 -0.00994,-0.03154 -0.01491,-0.03947c-0.01471,-0.01753 -0.01471,-0.038 0,-0.03173c0.01158,0.00627 0.04763,-0.01106 0.04763,-0.02213c0,-0.0048 0.00479,-0.00794 0.0114,-0.00794c0.00663,0 0.00975,0.0096 0.00975,0.02214c0,0.01586 0.0033,0.02213 0.01158,0.01752c0.00643,-0.00331 0.01141,-0.01273 0.01141,-0.01899c0,-0.01901 0.0524,-0.05221 0.06545,-0.0428c0.00498,0.00314 0.00994,0 0.01161,-0.01106c0.00477,-0.02214 0.03437,-0.03948 0.04742,-0.02841c0.00663,0.00461 0.01306,0.00313 0.01473,-0.00166c0.0033,-0.00628 0.01636,-0.01107 0.03107,-0.01254c0.01471,-0.00166 0.03439,-0.00794 0.04267,-0.0144c0.03106,-0.02047 0.06215,-0.01899 0.07521,0.00315c0.00828,0.01586 0.01158,0.01586 0.01158,0.00479c0,-0.01421 0.00645,-0.01586 0.04579,-0.01107c0.06234,0.00628 0.07209,0.00628 0.09508,-0.00166c0.0147,-0.00461 0.01968,-0.00313 0.01968,0.00959c0,0.00794 0.00477,0.01421 0.0114,0.01421c0.00496,0 0.00973,-0.00462 0.00973,-0.00942c0,-0.01272 0.02631,-0.01899 0.0493,-0.01272c0.01783,0.00628 0.01949,0.00793 0.01471,0.05054c-0.00165,0.02546 0,0.04279 0.00312,0.04279c0.00331,0 0.00663,-0.01106 0.00663,-0.02693c0,-0.02674 0.01801,-0.03781 0.02464,-0.01586c0.00165,0.00793 0.00643,0.00479 0.00973,-0.00774c0.00828,-0.03321 0.02631,-0.01587 0.02134,0.02047c-0.00496,0.03006 -0.00496,0.03006 0.00975,0.01899c0.00828,-0.00479 0.0147,-0.01733 0.0147,-0.02526c0,-0.00793 0.00498,-0.01734 0.01159,-0.02066c0.01305,-0.00627 0.02778,0.01752 0.02298,0.03486c-0.00165,0.00793 -0.00165,0.01421 0.00313,0.01421c0.00332,0 0.00663,-0.00461 0.00663,-0.00794c0,-0.00461 0.00809,-0.00627 0.01803,-0.00313c0.02131,0.00479 0.02444,0.01752 0.00642,0.02526c-0.00477,0.00333 -0.00975,0.01107 -0.00975,0.01753c0,0.01107 0.00333,0.01107 0.02134,0c0.02941,-0.01899 0.04247,-0.01753 0.04744,0.00313c0.00331,0.01107 0.00975,0.01587 0.01636,0.01107c0.00663,-0.00165 0.02134,0.0048 0.03274,0.01586c0.00993,0.00941 0.02464,0.01734 0.03127,0.01734c0.00975,0 0.00975,0.00794 0.00643,0.03007c-0.00331,0.0238 -0.00331,0.02693 0.00662,0.01734c0.01306,-0.01568 0.01801,-0.0142 0.02281,0.00793c0.00165,0.01107 0.01323,0.019 0.02629,0.02379c0.01471,0.00315 0.02281,0.01107 0.02281,0.02048c0,0.00959 0.00495,0.02066 0.00993,0.02693c0.01305,0.01107 0.00973,0.04427 -0.00498,0.05534c-0.00495,0.00331 -0.0114,0.00166 -0.01305,-0.00313c-0.00331,-0.00481 -0.01471,-0.00481 -0.03604,0c-0.03439,0.01105 -0.04082,0.0142 -0.03274,0.02858c0.00497,0.0094 0.06217,0.00627 0.09342,-0.0048c0.00975,-0.00479 0.01305,0 0.01305,0.02214c0,0.01586 -0.0033,0.02841 -0.00826,0.02841c-0.00332,0 -0.00644,0.00479 -0.00644,0.01272c0,0.01901 0.00809,0.01734 0.02943,-0.00479c0.01138,-0.01272 0.01801,-0.01587 0.02611,-0.00793c0.00826,0.00793 0.00993,0.00793 0.00993,-0.00479c0,-0.00776 -0.00332,-0.01421 -0.00828,-0.01421c-0.00312,0 -0.00644,-0.00628 -0.00644,-0.01254c0,-0.00794 0.00479,-0.01421 0.0114,-0.01421c0.00497,0 0.01158,0.00314 0.01158,0.00775c0,0.0048 0.00645,0.01107 0.01473,0.01272c0.01138,0.00481 0.01471,0.01107 0.01305,0.03007c-0.00332,0.03634 0.00331,0.04741 0.02777,0.04114c0.01158,-0.00314 0.01801,0 0.01305,0.00627c-0.00147,0.00313 0,0.01107 0.00331,0.01438c0.01325,0.00941 0.00828,0.03154 -0.00643,0.03154c-0.01803,0 -0.02299,0.00794 -0.01324,0.02214c0.00661,0.00793 0.01159,0.0094 0.01802,0.00313c0.0149,-0.01586 0.01803,-0.00313 0.01968,0.06014c0,0.03172 0.0033,0.057 0.00661,0.057c0.0081,0 0.00497,0.03486 -0.00661,0.04906c-0.00645,0.00793 -0.00645,0.01567 -0.00165,0.02213c0.01158,0.0142 0,0.05534 -0.01473,0.05534c-0.01306,0 -0.03769,0.03006 -0.03769,0.04427c0,0.01734 -0.02114,0 -0.02612,-0.019c-0.00495,-0.01734 -0.00495,-0.01734 -0.00827,-0.0048c-0.00313,0.01439 0.01472,0.05866 0.02961,0.07121c0.00975,0.00959 -0.00828,0.02545 -0.02134,0.01899c-0.00662,-0.00313 -0.00975,-0.01254 -0.00975,-0.02213c0,-0.02693 -0.041,-0.09481 -0.07208,-0.12026c-0.01654,-0.01255 -0.03125,-0.02675 -0.03125,-0.03154c0,-0.0096 -0.05242,-0.03948 -0.08184,-0.04907c-0.01637,-0.0048 -0.02133,-0.00314 -0.02133,0.00959c0,0.0094 -0.00312,0.01254 -0.00975,0.0094c-0.01471,-0.00627 -0.02134,0.00794 -0.00828,0.02214c0.01803,0.01734 0.01491,0.038 -0.00478,0.03006c-0.01323,-0.00479 -0.01488,-0.00313 -0.00993,0.0238c0.00165,0.01568 0.00498,0.03634 0.00498,0.04574c0,0.0096 0.0033,0.01587 0.0066,0.01587c0.0048,0 0.00645,-0.00314 0.00313,-0.00793c-0.00165,-0.0048 0.00167,-0.00941 0.00828,-0.00941c0.00497,0 0.00975,0.00627 0.00975,0.01254c0,0.00646 -0.00645,0.01273 -0.01803,0.01107c-0.00973,0 -0.01801,-0.00461 -0.01801,-0.00774c0,-0.0144 -0.04415,-0.11234 -0.0572,-0.12673c-0.01471,-0.01568 -0.00496,-0.02047 -0.12118,0.05386c-0.01802,0.01107 -0.0377,0.03487 -0.04763,0.05221c-0.0081,0.01733 -0.02115,0.03486 -0.02776,0.03799c-0.00663,0.00314 -0.03109,0.02841 -0.05242,0.05534c-0.09177,0.1186 -0.07687,0.1328 -0.07044,0.375c0.02778,0.18353 0.02778,0.18353 0.02778,0.18353c-0.06547,0 -0.06547,0 -0.06547,0c-0.05406,0 -0.05406,0 -0.05406,0c0.00496,-0.16933 0.00496,-0.16933 0.00496,-0.16933c0.0033,-0.0142 0.00497,-0.04279 0.00663,-0.05866c0.00165,-0.00941 -0.04598,-0.05054 -0.04433,-0.05994c0,-0.00794 0.04928,0.0142 0.04928,0.00627c0.0081,-0.11547 0,-0.20733 -0.02133,-0.25622c-0.00496,-0.03006 -0.04598,-0.12671 -0.0524,-0.12671c-0.00166,0 -0.01324,-0.00941 -0.02464,-0.02048c-0.01969,-0.02065 -0.02777,-0.02213 -0.13757,-0.02841c-0.11787,-0.00645 -0.11787,-0.00645 -0.11787,-0.00645c-0.02795,0.02213 -0.02795,0.02213 -0.02795,0.02213c-0.01636,0.01439 -0.03274,0.0238 -0.03751,0.0238c-0.00993,0 -0.05095,0.0332 -0.06878,0.0522c-0.00166,0 -0.00331,-0.00166 -0.00331,-0.00314c-0.00165,0 -0.00165,0 -0.00165,-0.00165c-0.00165,-0.00461 -0.00332,-0.00941 -0.00663,-0.01421c0.00994,-0.00793 0.01803,-0.01273 0.02134,-0.01106c0.00495,0.00313 0.00975,0 0.00975,-0.00794c0,-0.00793 -0.00975,-0.01107 -0.03586,-0.00793c-0.03127,0.0048 -0.03937,0.00645 -0.04432,0.02527c-0.0081,0.00959 -0.00976,0.02379 -0.00496,0.03486c-0.00167,0.01421 -0.00167,0.0238 0,0.0238c0.00165,0 0.0033,-0.00313 0.00826,-0.00646c0,0.00166 0.00165,0.00333 0.00332,0.0048c-0.01638,0.00479 -0.02465,0.019 -0.02298,0.0332c-0.00828,0.00646 -0.01638,0.00959 -0.02631,0.01438c0,0 0,-0.00165 -0.00148,-0.00165c0.00645,-0.01421 0.00976,-0.03007 0.01141,-0.05386c0.00332,-0.02675 0.00165,-0.04427 -0.00331,-0.04427c-0.0033,0 -0.00662,0.00646 -0.00662,0.01586c0.00165,0.00793 -0.00148,0.01586 -0.00808,0.01734c-0.00498,0.00165 -0.00828,-0.00148 -0.00828,-0.00941c0,-0.019 -0.00643,-0.019 -0.02116,-0.00166c-0.00661,0.00646 -0.01966,0.0142 -0.03107,0.01753c-0.0149,0.00461 -0.01968,0.00147 -0.0263,-0.01587c-0.00496,-0.0142 -0.00827,-0.03007 -0.00496,-0.03634c0.00165,-0.00793 0.00165,-0.01438 -0.00478,-0.01438c-0.01803,0 -0.00497,-0.02527 0.01636,-0.03007l0.00001,-0.00001zm0.14086,-0.36374c-0.00993,-0.00165 -0.01803,-0.00627 -0.02133,-0.01272c-0.00165,-0.00941 -0.00331,-0.00941 -0.00331,0c0,0.00645 -0.00662,0.01107 -0.01305,0.01272c-0.01159,0 -0.01159,0.00166 0.00165,0.00794c0.00808,0.00313 0.01636,0.00792 0.01801,0.00792c0.00147,0 0.00975,-0.00479 0.01803,-0.00792c0.01471,-0.00794 0.01471,-0.00794 0,-0.00794zm1.29867,0.25474c0.00312,0.00313 0.00643,-0.00167 0.00643,-0.00959c0,-0.00628 -0.00331,-0.01255 -0.00643,-0.01255c-0.00497,0 -0.00828,0.00313 -0.00828,0.00774c0,0.00481 0.00331,0.01126 0.00828,0.0144zm-0.01158,0.0142c-0.00166,-0.0048 -0.00975,-0.01107 -0.01638,-0.01107c-0.00478,0 -0.00808,0.00627 -0.00478,0.01107c0.00147,0.00479 0.0081,0.00793 0.01471,0.00793c0.00645,0 0.0081,-0.00314 0.00645,-0.00793zm-0.01471,0.0712c0.00496,0 0.01158,-0.00166 0.01158,-0.00314c0,-0.00332 -0.00662,-0.00645 -0.01158,-0.00959c-0.00645,-0.00313 -0.0114,-0.00147 -0.0114,0.00314c0,0.0048 0.00495,0.00959 0.0114,0.00959zm0.01306,-0.15033c0.0066,-0.00314 0.00993,-0.00794 0.00826,-0.01255c-0.00496,-0.01125 -0.03272,-0.01125 -0.03272,0c0,0.01255 0.00973,0.01734 0.02446,0.01255zm-0.08994,-0.11861c-0.00828,0.0048 -0.01324,0.0142 -0.01158,0.019c0.00827,0.01254 0.01803,0.00941 0.02629,-0.01107c0.0081,-0.019 0.00479,-0.02213 -0.01471,-0.00793zm-0.03127,0.24367c0.04267,0.04261 0.04432,0.04426 0.04432,0.03006c0,-0.00793 -0.0033,-0.01438 -0.00827,-0.01438c-0.00478,0 -0.01306,-0.00794 -0.01802,-0.01734c-0.00477,-0.00941 -0.0147,-0.01901 -0.0228,-0.01901c-0.01489,0 -0.01489,0.00167 0.00477,0.02067zm-0.03437,-0.07453c0.00991,0 0.01471,-0.00313 0.00826,-0.00461c-0.00495,-0.00313 -0.01305,-0.00313 -0.01801,0c-0.00498,0.00148 0,0.00461 0.00975,0.00461zm-0.04745,-0.21506c0.00496,0.00479 0.01967,0.01106 0.03272,0.0142c0.02299,0.00479 0.02464,0.00479 0.01159,-0.00793c-0.01489,-0.01569 -0.05571,-0.02048 -0.04431,-0.00627zm-0.09986,-0.26248c-0.00496,0.00461 -0.00661,0.0142 -0.00496,0.02047c0.00331,0.01272 0.01306,0.00166 0.01306,-0.01734c0,-0.00959 -0.00165,-0.01107 -0.0081,-0.00313zm0.0491,0.34161c0.01305,0.00792 0.01803,0.00792 0.02465,-0.00314c0.01306,-0.01734 0.00478,-0.02527 -0.01968,-0.01421c-0.01968,0.00776 -0.01968,0.00776 -0.00497,0.01735zm-0.03272,-0.07913c0.02463,-0.01734 0.02463,-0.01734 0.00495,-0.01734c-0.01323,0 -0.02299,0.00627 -0.02794,0.01734c-0.00313,0.01106 -0.00645,0.01733 -0.0048,0.01733c0,0 0.01306,-0.00941 0.02779,-0.01733zm-0.03605,0.25639c0.01139,0.01734 0.03107,0.01734 0.02464,-0.00166c-0.00165,-0.00628 -0.00332,-0.0142 -0.00332,-0.01587c0,-0.00147 -0.00661,-0.00147 -0.01471,0.00167c-0.01323,0.00313 -0.01323,0.00792 -0.00661,0.01586zm-0.05077,-0.06493c0.01306,0.01734 0.01969,0.01899 0.03439,0.00627c0.00975,-0.00793 0.00975,-0.00793 0,-0.00941c-0.00495,0 -0.01801,-0.00166 -0.02941,-0.0048c-0.01638,-0.00626 -0.01638,-0.00626 -0.00498,0.00794zm-0.00165,-0.17247c0.00828,0 0.01803,-0.02527 0.01306,-0.0332c-0.00643,-0.00793 -0.01967,0.00479 -0.01967,0.019c0,0.00793 0.00331,0.0142 0.00661,0.0142zm-0.08017,0.10754c-0.00993,0.00646 -0.00827,0.00794 0.00478,0.00794c0.00828,0 0.01801,-0.00315 0.02134,-0.00794c0.00495,-0.01254 -0.01141,-0.01254 -0.02612,0zm0.00166,0.13926c0.00147,0.00167 0.00643,-0.00166 0.0114,-0.0094c0.00496,-0.00646 0.01967,-0.01439 0.03107,-0.01753c0.01471,-0.00479 0.02133,-0.01254 0.02133,-0.0238c0,-0.02673 -0.02298,-0.01881 -0.04744,0.01588c-0.00993,0.01751 -0.01802,0.03172 -0.01636,0.03485zm-0.01803,-0.07285c0.0147,-0.01734 0.0147,-0.02048 0.00312,-0.02528c-0.01305,-0.00626 -0.02279,0.00794 -0.02279,0.0332c-0.00167,0.01901 -0.00167,0.01901 0.01967,-0.00792zm-0.02629,-0.18667c0.00165,0.01272 0.00495,0.01106 0.0147,-0.01255c0.01159,-0.02527 0.01159,-0.02859 0.00166,-0.02859c-0.00643,0 -0.01306,0.00479 -0.01471,0.01273c-0.00331,0.00627 -0.00331,0.02066 -0.00165,0.02841zm-0.0081,-0.12967c0,0.00644 0.00312,0.02213 0.00644,0.03319c0.00496,0.02214 0.00496,0.02214 0.00993,0.00314c0.00643,-0.019 0,-0.0474 -0.00993,-0.0474c-0.00479,0 -0.00644,0.00479 -0.00644,0.01106l0,0.00001zm-0.11474,0.05219c-0.0081,0.01107 -0.0081,0.02214 -0.00167,0.05534c0.00332,0.02379 0.0116,0.04759 0.01638,0.0522c0.00828,0.00793 0.00993,0 0.01158,-0.04906c0,-0.05995 -0.00828,-0.07895 -0.02629,-0.05848zm0.01471,0.16768c0.00165,0.00313 0.00495,-0.00314 0.0033,-0.01255c0,-0.00959 -0.00165,-0.01107 -0.00495,-0.00479c-0.00148,0.00627 -0.00148,0.0142 0.00165,0.01734zm0.05903,-0.14868c-0.00166,0.00314 -0.00166,0.02528 0.0033,0.04906c0.00497,0.04114 0.00645,0.0428 0.0081,0.01274c0.00165,-0.04907 -0.00165,-0.07287 -0.0114,-0.0618zm-0.05573,0.4462c0.00993,-0.019 0.02629,-0.05072 0.0377,-0.06973c0.01305,-0.02047 0.02133,-0.0474 0.02464,-0.07433c0.00479,-0.04261 0.00479,-0.04261 0.00479,-0.04261c-0.01968,0.02362 -0.01968,0.02362 -0.01968,0.02362c-0.00975,0.01272 -0.01636,0.02693 -0.01636,0.03172c0,0.01254 -0.03109,0.09167 -0.04084,0.10588c-0.00495,0.00792 -0.01323,0.02545 -0.01471,0.038c-0.00828,0.03633 0.00645,0.03006 0.02446,-0.01255zm-0.11623,0.16288c0.00498,0.03154 0.00498,0.03154 0.02134,-0.03634c0.00975,-0.03653 0.02446,-0.095 0.03439,-0.13134c0.01305,-0.04592 0.01803,-0.08392 0.01803,-0.1376c0,-0.06972 -0.00167,-0.0712 -0.01473,-0.06326c-0.02959,0.02047 -0.04597,0.07746 -0.05258,0.18813c-0.00312,0.05701 -0.00645,0.114 -0.00975,0.12655c-0.00165,0.01272 0,0.03652 0.0033,0.05386zm0.00333,-0.40489c0.00643,0.01568 0.01305,0.02841 0.01305,0.02841c0.00166,0 0.00974,-0.00959 0.01636,-0.02214c0.00828,-0.01106 0.02134,-0.02378 0.02629,-0.02839c0.01951,-0.0144 0.02446,-0.05866 0.0081,-0.08873c-0.01305,-0.02693 -0.04909,-0.057 -0.05572,-0.04741c-0.00331,0.00313 -0.00808,0.03321 -0.0114,0.06806c-0.00661,0.05221 -0.00661,0.06808 0.00332,0.0902zm-0.00993,-0.36227c0.0033,0.00314 0.0066,0.00148 0.0066,-0.00331c0,-0.00628 -0.0033,-0.01255 -0.0066,-0.01569c-0.00498,-0.00332 -0.0081,-0.00165 -0.0081,0.00462c0,0.00479 0.00312,0.01107 0.0081,0.01438zm-0.53055,0.42535c0.02281,0.00167 0.02281,0.00167 0.02281,0.00167c0.02298,0 0.04597,-0.02048 0.04597,-0.038c0,-0.01107 -0.00165,-0.01107 -0.06878,0.03633zm0.00975,-0.04426c0,0.0048 0.0033,0.00959 0.00828,0.00959c0.00808,0 0.03107,-0.02841 0.02611,-0.0332c-0.00498,-0.00646 -0.03439,0.0142 -0.03439,0.02361zm0.01803,-0.10902c0.02464,0.03155 0.03604,0.03469 0.0491,0.0142c0.01323,-0.01899 0.00165,-0.03172 -0.03772,-0.03633c-0.03271,-0.0048 -0.03271,-0.0048 -0.01138,0.02213zm-0.01803,-0.08871c0,0.00331 0.01158,0.01106 0.02464,0.01751c0.0605,0.03007 0.07208,0.03007 0.07043,0.00148c0,-0.01734 -0.02464,-0.05534 -0.03439,-0.05534c-0.01158,0 -0.06068,0.03007 -0.06068,0.03635zm0.08846,0.22466c0.01801,0 0.01967,-0.00479 0.00496,-0.01254c-0.00663,-0.00167 -0.01306,0 -0.01471,0.00461c-0.00332,0.00479 0.00165,0.00793 0.00975,0.00793zm0.01306,-0.37168c-0.01141,-0.00793 -0.02613,-0.01107 -0.03274,-0.00793c-0.0114,0.00627 -0.00975,0.00793 0.00661,0.01272c0.0081,0.00315 0.02466,0.00628 0.03274,0.00776c0.00975,0 0.00975,-0.00315 -0.00661,-0.01255zm-0.00147,0.05699c0.00973,0 0.0114,-0.00165 0.00477,-0.00644c-0.00477,-0.00148 -0.0114,-0.00148 -0.0147,0.00165c-0.00166,0.00314 0.0033,0.00627 0.00993,0.00479zm0.00973,0.03635c-0.02299,0 -0.02299,0.00147 -0.00973,0.0142c0.01636,0.0142 0.02113,0.01586 0.02776,0.00627c0.0114,-0.01254 0.0033,-0.02047 -0.01803,-0.02047zm0.03274,-0.17874c-0.00663,-0.00793 -0.00828,0.00627 -0.00496,0.02361c0.00165,0.01107 0.00826,0.02066 0.01158,0.02066c0.00643,0 0.00166,-0.03487 -0.00662,-0.04427zm0.0524,0.2088c-0.0033,0.00148 0.00497,0.01107 0.01473,0.019c0.00993,0.00793 0.01801,0.01106 0.01801,0.00627c0,-0.01106 -0.02776,-0.03173 -0.03274,-0.02527zm-0.041,0.01107c-0.01471,0.01107 -0.00643,0.03947 0.01489,0.04427c0.0114,0.00313 0.02943,0.01586 0.04084,0.0284c0.00993,0.01273 0.01801,0.01753 0.01801,0.01273c0,-0.01586 -0.06546,-0.09186 -0.07374,-0.0854zm0.06713,0.13133c-0.00975,-0.02546 -0.02115,-0.03799 -0.04249,-0.04593c-0.01636,-0.00627 -0.03274,-0.00959 -0.03769,-0.00793c-0.00498,0.00166 0.0147,0.02213 0.04267,0.04593c0.0524,0.04113 0.0524,0.04113 0.03751,0.00793zm0.08697,-0.24366c-0.0033,0 -0.00662,0.00627 -0.00662,0.01254c0,0.00793 0.00332,0.01272 0.00662,0.01272c0.00478,0 0.0081,-0.00479 0.0081,-0.01272c0,-0.00627 -0.00332,-0.01254 -0.0081,-0.01254zm-0.01488,0.12967c0,0.01106 0.02794,0.00313 0.03934,-0.01107c0.01636,-0.0238 0.01471,-0.03007 -0.00662,-0.03007c-0.01471,0 -0.03272,0.02214 -0.03272,0.04114zm0.04762,-0.34162c-0.00497,0.02047 -0.00828,0.03781 -0.00662,0.03948c0.00497,0.00627 0.01803,-0.04113 0.01803,-0.06014c0,-0.00792 -0.00498,0.00167 -0.01141,0.02066zm0.08514,0.31948c-0.00828,0 -0.01471,0.00314 -0.01471,0.00941c0,0.00479 0.00478,0.00793 0.00974,0.00793c0.00662,0 0.01305,-0.00314 0.01472,-0.00793c0.00331,-0.00627 -0.00167,-0.00941 -0.00975,-0.00941zm-0.01968,0.29734c0.00975,0.0286 0.02446,0.05534 0.03274,0.0618c0.00828,0.00479 0.02464,0.02693 0.03439,0.04907c0.00975,0.02213 0.01968,0.03946 0.02133,0.03946c0.00808,0 -0.00828,-0.14553 -0.01968,-0.1898c-0.00993,-0.03799 -0.01306,-0.07286 -0.0114,-0.12819c0.00147,-0.04114 0,-0.07748 -0.00331,-0.08061c-0.00165,-0.00314 -0.01305,-0.00314 -0.02298,0c-0.01803,0.00626 -0.01969,0.01107 -0.01969,0.04593c0,0.02674 -0.0033,0.04113 -0.0114,0.0474c-0.02299,0.01421 -0.02133,0.09481 0,0.15494zm-0.04745,-0.21193c-0.0033,-0.0238 -0.0066,-0.02693 -0.02463,-0.02693c-0.02134,0 -0.02134,0.00166 -0.01969,0.03486c0,0.02048 0.00332,0.04427 0.00498,0.05533c0.00165,0.01107 0.0081,0.02214 0.01471,0.0238c0.01305,0.00793 0.02776,-0.0474 0.02463,-0.08706zm-0.02463,0.15973c-0.01471,-0.01899 -0.02464,-0.03947 -0.02612,-0.04427c0,-0.00626 -0.00828,-0.02213 -0.01801,-0.03633c-0.00993,-0.0142 -0.02133,-0.03173 -0.02631,-0.038c-0.01636,-0.02213 -0.01305,-0.00313 0.00498,0.04593c0.0114,0.0332 0.03106,0.06327 0.05405,0.08854c0.04249,0.04279 0.04745,0.03486 0.01141,-0.01587zm-0.02612,0.07766c0.01784,0 0.01636,-0.00166 -0.00828,-0.02693c-0.01636,-0.01586 -0.02776,-0.0332 -0.02776,-0.04114c0,-0.00626 -0.02133,-0.02858 -0.04597,-0.04906c-0.02446,-0.02066 -0.04745,-0.04113 -0.05075,-0.0474c-0.00333,-0.00793 -0.00498,-0.00793 -0.00498,0.00147c0,0.00959 -0.00808,0.01107 -0.03439,0.00627c-0.01801,-0.00313 -0.03272,-0.00313 -0.03272,-0.00147c0,0.00314 0.00661,0.02213 0.01324,0.04113c0.0114,0.03155 0.01636,0.038 0.0524,0.05054c0.02281,0.00794 0.05885,0.02693 0.08184,0.04113c0.02133,0.0144 0.04744,0.02546 0.05737,0.02546zm-0.25562,0.05368c0.00663,0 0.01638,-0.00314 0.02299,-0.00794c0.0114,-0.01106 0.00167,-0.01106 -0.01967,0c-0.00975,0.0048 -0.0114,0.00628 -0.00332,0.00794zm-0.01801,-0.03948c0.01636,-0.00645 0.06878,-0.01273 0.11641,-0.01273c0.08991,-0.00147 0.10794,-0.00626 0.0719,-0.01586c-0.0114,-0.00313 -0.03751,-0.01107 -0.05885,-0.01899c-0.03769,-0.0142 -0.11475,-0.00941 -0.12283,0.00645c-0.00167,0.00314 -0.00993,0.0048 -0.01803,0.00314c-0.01636,-0.0048 -0.03274,0.00793 -0.0377,0.0332c-0.00662,0.02047 0.00496,0.02214 0.0491,0.00479zm-0.13093,0.03634c0.0033,0.01273 0.01968,0.0142 0.03273,0.00313c0.00808,-0.00626 0.00808,-0.0094 0,-0.01899c-0.00662,-0.00941 -0.0114,-0.00941 -0.02133,-0.00148c-0.00663,0.00462 -0.0114,0.01254 -0.0114,0.01734zm-0.05241,0.11068c0.00643,0 0.00974,0.00479 0.00643,0.0142c-0.00147,0.00646 -0.00643,0.01273 -0.00975,0.01273c-0.00496,0 -0.00808,-0.00627 -0.00808,-0.01273c0,-0.00775 0.00478,-0.0142 0.0114,-0.0142z" id="svg_8"/>
  <line stroke-linecap="undefined" stroke-linejoin="undefined" id="svg_2" y2="243.453125" x2="300" y1="244.453125" x1="0" stroke-width="3" stroke="#000" fill="none"/>
 </g>
</svg>