<svg width="300" height="300" xmlns="http://www.w3.org/2000/svg">
 <!-- Created with Method Draw - http://github.com/duopixel/Method-Draw/ -->
 <g>
  <title>background</title>
  <rect fill="#fff" id="canvas_background" height="302" width="302" y="-1" x="-1"/>
  <g display="none" overflow="visible" y="0" x="0" height="100%" width="100%" id="canvasGrid">
   <rect fill="url(#gridpattern)" stroke-width="0" y="0" x="0" height="100%" width="100%"/>
  </g>
 </g>
 <g>
  <title>Layer 1</title>
  <path id="svg_3" d="m53.684783,75.407982c-1.011496,0 -1.531404,-0.975441 -1.531404,-2.14517c0,-0.975214 0.259915,-1.922037 1.011496,-1.922037c0.519908,0 1.302563,0.946823 1.562477,1.922037c0.519908,1.419894 0,2.14517 -1.042569,2.14517zm172.904604,55.657446c2.314137,0 2.833967,0.250165 1.531404,1.92181c-0.751581,1.169729 -2.314059,2.144943 -3.06564,2.144943c-0.782576,0 -1.562477,-0.975214 -1.562477,-2.144943c0,-1.198423 1.042648,-1.92181 3.096713,-1.92181zm-161.563153,-68.081594c-2.314059,-0.473298 -2.574052,-2.869992 0,-3.593607c1.302484,-0.222831 2.054144,0.473223 2.054144,1.922037c0,1.198272 -0.75166,1.894627 -2.054144,1.67157zm-28.845256,75.713487c3.096713,-0.696431 3.096713,-1.196988 2.054144,-2.841374c-0.779901,-1.196988 -1.039816,-2.645651 -0.519908,-3.119025c0.259915,-0.724898 1.562477,0 2.314059,1.420045c1.042569,1.922037 1.822392,2.173713 3.876536,0.975214c1.274321,-0.723539 2.314059,-1.198121 2.314059,-0.473223c0,0.473223 0.782655,0 1.794151,-0.975214c1.562556,-1.420045 1.822471,-4.540354 0.259993,-6.212074c-1.271489,-1.420045 -7.72483,-0.946672 -9.518981,0.723539c-1.039816,1.198498 -1.822471,0.948182 -2.833967,-1.196761c-1.562477,-3.566498 -1.562477,-4.067207 2.054065,-4.290037c3.096713,0 3.096713,0 0.519908,-1.448663c-1.299731,-0.696431 -2.573973,-2.144943 -2.573973,-3.091766c0,-2.396543 3.588301,-3.816588 5.150778,-2.144868c0.519908,0.69628 1.531483,1.420045 2.574052,1.420045c2.054144,0 11.861281,-8.105568 11.861281,-9.777289c0,-0.724823 1.014328,-1.198045 2.054144,-0.724823c1.274243,0.2516 3.58838,-0.473223 5.933512,-1.671721c3.325554,-1.921886 3.325554,-2.144943 1.531404,-5.263968c-1.271489,-2.144943 -2.833967,-2.869992 -6.450588,-2.869992c-4.108209,0 -5.150778,0.473449 -6.422268,3.343441c-0.52274,1.92181 -2.085139,3.341931 -3.096713,3.341931c-1.794151,0 -2.314059,-2.143659 -0.519908,-3.341931c0.779823,-0.473449 1.299731,-2.144943 1.299731,-3.816664c0,-2.618468 -0.519908,-3.091766 -3.876536,-2.395259c-3.356628,0.473223 -3.356628,0.250165 -2.574052,-3.343592c0.519908,-2.144868 1.271489,-4.066754 1.794229,-4.289811c0.519908,-0.250165 1.039737,-2.395259 1.039737,-4.540203c0,-4.290264 1.534236,-5.013803 4.371034,-1.922037c1.299652,1.671645 2.082385,1.922037 2.573973,0.473223c0.519908,-0.946672 2.3423,-1.169729 5.179098,-0.696506c3.848294,0.946823 4.108209,0.696506 3.588301,-2.144943c-0.259915,-1.671494 -0.522661,-3.593531 -0.782576,-4.066754c0,-0.723765 -1.271489,-1.671721 -2.805725,-2.395486c-3.096713,-1.198045 -3.876536,-4.066754 -1.042569,-4.066754c0.782655,0 1.534157,-0.473449 1.534157,-1.421555c0,-0.723765 1.562556,-1.196988 3.616621,-0.975365c2.836799,0.2516 4.368202,-0.696129 8.244738,-5.709705c2.836799,-3.593758 4.890864,-5.515644 5.150857,-4.540429c0.259915,1.196988 1.562477,1.893268 2.83672,1.893268c2.054144,0 2.314137,-0.69628 1.562556,-3.815305c-0.262747,-2.145094 -1.562556,-4.76326 -2.345132,-5.961758c-2.314137,-2.646708 -2.314137,-5.738474 0,-4.792029c1.822392,0.948182 7.493078,-1.67021 7.493078,-3.341856c0,-0.724898 0.754413,-1.198272 1.794151,-1.198272c1.042648,0 1.534236,1.448588 1.534236,3.343366c0,2.395259 0.519908,3.342082 1.822471,2.645576c1.011496,-0.500633 1.794229,-1.922037 1.794229,-2.868633c0,-2.870143 8.24466,-7.883795 10.298725,-6.462466c0.782733,0.4736 1.562477,0 1.825381,-1.671494c0.751503,-3.343366 5.407861,-5.961758 7.461926,-4.290037c1.042648,0.69628 2.054223,0.473449 2.316969,-0.250165c0.519829,-0.948106 2.573973,-1.671721 4.888032,-1.894929c2.314059,-0.250165 5.410772,-1.198272 6.713334,-2.173486c4.888032,-3.091766 9.778974,-2.868709 11.833039,0.474884c1.302563,2.395108 1.822392,2.395108 1.822392,0.723388c0,-2.145094 1.014407,-2.395259 7.205001,-1.671494c9.807215,0.948106 11.341451,0.948106 14.958073,-0.250392c2.314059,-0.696431 3.096635,-0.473374 3.096635,1.448437c0,1.198498 0.75166,2.14517 1.794229,2.14517c0.779823,0 1.531404,-0.696506 1.531404,-1.421404c0,-1.92181 4.139361,-2.868633 7.755904,-1.92181c2.805725,0.948106 3.06564,1.198045 2.314059,7.633176c-0.259915,3.843923 0,6.462315 0.491667,6.462315c0.519829,0 1.042569,-1.671721 1.042569,-4.06698c0,-4.039721 2.833967,-5.710082 3.876536,-2.395335c0.259993,1.197063 1.011496,0.723614 1.531404,-1.169653c1.302641,-5.015086 4.139361,-2.39677 3.356628,3.091766c-0.779744,4.540203 -0.779744,4.540203 1.534315,2.868482c1.302484,-0.723614 2.31398,-2.618166 2.31398,-3.815305c0,-1.198347 0.782733,-2.619676 1.822549,-3.120384c2.053987,-0.946445 4.370956,2.645802 3.616542,5.265252c-0.259915,1.197214 -0.259915,2.145094 0.491588,2.145094c0.52274,0 1.042648,-0.69628 1.042648,-1.198272c0,-0.696431 1.274243,-0.946823 2.83672,-0.473223c3.353874,0.723614 3.845462,2.645425 1.011575,3.815154c-0.751581,0.501992 -1.534236,1.671721 -1.534236,2.647086c0,1.671721 0.522661,1.671721 3.356628,0c4.628117,-2.868633 6.682182,-2.647086 7.464916,0.473223c0.519829,1.671721 1.534157,2.396619 2.573973,1.671721c1.042569,-0.250316 3.356628,0.724898 5.150857,2.395259c1.562477,1.421329 3.876536,2.618392 4.919105,2.618392c1.534236,0 1.534236,1.198423 1.011496,4.541637c-0.519829,3.593758 -0.519829,4.06698 1.042648,2.618543c2.054065,-2.368227 2.833967,-2.145321 3.58838,1.196761c0.259915,1.671721 2.082307,2.869992 4.13645,3.593607c2.314059,0.474884 3.58838,1.671645 3.58838,3.093049c0,1.448588 0.779744,3.119025 1.562477,4.067131c2.054144,1.671494 1.531404,6.685146 -0.782733,8.356791c-0.779744,0.500708 -1.794072,0.250392 -2.054065,-0.473223c-0.519829,-0.725049 -2.314059,-0.725049 -5.670765,0c-5.410772,1.67021 -6.422268,2.144943 -5.150778,4.317145c0.782655,1.420045 9.781727,0.946823 14.698079,-0.724898c1.534236,-0.72369 2.054144,0 2.054144,3.343441c0,2.395108 -0.519908,4.290037 -1.299731,4.290037c-0.52274,0 -1.014328,0.723539 -1.014328,1.92181c0,2.869841 1.274321,2.618166 4.630949,-0.723765c1.791319,-1.92181 2.833888,-2.396543 4.108209,-1.198045c1.299731,1.198045 1.562477,1.198045 1.562477,-0.723765c0,-1.171163 -0.52274,-2.144943 -1.302484,-2.144943c-0.491667,0 -1.014407,-0.948106 -1.014407,-1.894929c0,-1.198121 0.754413,-2.144943 1.794151,-2.144943c0.782655,0 1.822471,0.473223 1.822471,1.169729c0,0.7252 1.014328,1.671645 2.316891,1.922037c1.791397,0.725049 2.314059,1.671721 2.054065,4.540354c-0.522661,5.488158 0.519987,7.160029 4.368202,6.213358c1.822471,-0.474884 2.833888,0 2.054144,0.946672c-0.231673,0.473223 0,1.671721 0.519908,2.172051c2.085139,1.42148 1.302484,4.763637 -1.011575,4.763637c-2.83672,0 -3.616621,1.198045 -2.082307,3.343215c1.039737,1.198272 1.822392,1.420045 2.833888,0.473374c2.345132,-2.395259 2.836799,-0.473374 3.096713,9.082066c0,4.790368 0.519908,8.607183 1.039816,8.607183c1.274243,0 0.782655,5.265252 -1.039816,7.410195c-1.014328,1.196988 -1.014328,2.366641 -0.259915,3.341856c1.822392,2.14517 0,8.357244 -2.316969,8.357244c-2.053987,0 -5.930601,4.540203 -5.930601,6.685297c0,2.619827 -3.325554,0 -4.108209,-2.868709c-0.779823,-2.618317 -0.779823,-2.618317 -1.302563,-0.724898c-0.491588,2.173561 2.316891,8.858858 4.659269,10.75341c1.534157,1.448814 -1.302563,3.843923 -3.356706,2.868709c-1.042648,-0.473223 -1.534236,-1.893268 -1.534236,-3.341931c0,-4.066754 -6.450588,-14.3187 -11.341451,-18.162472c-2.602215,-1.894929 -4.916352,-4.039872 -4.916352,-4.763411c0,-1.448663 -8.247492,-5.961758 -12.875609,-7.410346c-2.576884,-0.724898 -3.356706,-0.473298 -3.356706,1.448588c0,1.420045 -0.491588,1.893268 -1.534236,1.420045c-2.314059,-0.946823 -3.356628,1.198498 -1.302484,3.343441c2.83672,2.618317 2.345132,5.738474 -0.751581,4.540203c-2.082385,-0.723614 -2.342379,-0.473449 -1.562477,3.593682c0.259915,2.368 0.782655,5.488158 0.782655,6.908203c0,1.448663 0.519829,2.395486 1.039737,2.395486c0.754492,0 1.014328,-0.473449 0.491667,-1.196988c-0.259915,-0.725049 0.262825,-1.421404 1.302484,-1.421404c0.782733,0 1.534236,0.947955 1.534236,1.894627c0,0.975365 -1.014249,1.92181 -2.83672,1.671872c-1.531404,0 -2.833967,-0.696506 -2.833967,-1.16988c0,-2.173713 -6.945008,-16.965635 -8.999073,-19.137837c-2.314137,-2.368227 -0.779901,-3.091766 -19.06636,8.133885c-2.833888,1.671721 -5.930601,5.265252 -7.493078,7.883795c-1.274321,2.618166 -3.328386,5.265252 -4.368202,5.738474c-1.042569,0.473449 -4.890864,4.290037 -8.24757,8.357017c-14.438165,17.910796 -12.093033,20.05589 -11.081458,56.632811c4.370956,27.716477 4.370956,27.716477 4.370956,27.716477c-10.301635,0 -10.301635,0 -10.301635,0c-8.504653,0 -8.504653,0 -8.504653,0c0.779823,-25.572969 0.779823,-25.572969 0.779823,-25.572969c0.519829,-2.143508 0.782655,-6.462089 1.042648,-8.857575c0.259915,-1.421329 -7.233242,-7.633403 -6.973249,-9.053297c0,-1.198272 7.753072,2.14517 7.753072,0.946672c1.274243,-17.437574 0,-31.310235 -3.356706,-38.693246c-0.779823,-4.540429 -7.233164,-19.136402 -8.24466,-19.136402c-0.259993,0 -2.082385,-1.421329 -3.876536,-3.093049c-3.096792,-3.118874 -4.368202,-3.342082 -21.643166,-4.290037c-18.546374,-0.973931 -18.546374,-0.973931 -18.546374,-0.973931c-4.396444,3.342082 -4.396444,3.342082 -4.396444,3.342082c-2.573973,2.173486 -5.150778,3.593607 -5.902438,3.593607c-1.562477,0 -8.015818,5.01486 -10.821543,7.883342c-0.259915,0 -0.519829,-0.249939 -0.519829,-0.473223c-0.259993,0 -0.259993,0 -0.259993,-0.250316c-0.259915,-0.69628 -0.522661,-1.421329 -1.042569,-2.144943c1.562477,-1.198272 2.83672,-1.92317 3.356628,-1.671494c0.779823,0.473223 1.534236,0 1.534236,-1.198498c0,-1.196988 -1.534236,-1.671645 -5.642445,-1.196988c-4.919184,0.723765 -6.193426,0.973931 -6.973249,3.81538c-1.274321,1.448588 -1.534236,3.593682 -0.779823,5.265403c-0.262825,2.144943 -0.262825,3.593531 0,3.593531c0.259915,0 0.519829,-0.473223 1.299731,-0.975214c0,0.250392 0.259915,0.501992 0.522661,0.724898c-2.576805,0.723614 -3.879368,2.868709 -3.616621,5.013652c-1.302484,0.975214 -2.576805,1.448588 -4.139204,2.172202c0,0 0,-0.250165 -0.231752,-0.250165c1.014328,-2.144943 1.534236,-4.540429 1.794151,-8.13396c0.52274,-4.039872 0.259915,-6.685297 -0.519829,-6.685297c-0.519908,0 -1.042569,0.975214 -1.042569,2.395033c0.259836,1.198498 -0.231752,2.395486 -1.271568,2.618543c-0.782655,0.250165 -1.302484,-0.223057 -1.302484,-1.420045c0,-2.869992 -1.011575,-2.869992 -3.328465,-0.2516c-1.039737,0.975214 -3.093881,2.145094 -4.888032,2.647086c-2.345132,0.69628 -3.096713,0.222831 -4.139282,-2.395486c-0.779823,-2.144943 -1.299731,-4.541637 -0.779823,-5.488309c0.259915,-1.198272 0.259915,-2.172202 -0.751581,-2.172202c-2.836799,0 -0.782655,-3.816815 2.573973,-4.541713zm22.162995,-54.932548c-1.562477,-0.250165 -2.836799,-0.946672 -3.356628,-1.921886c-0.259993,-1.421329 -0.519908,-1.421329 -0.519908,0c0,0.975214 -1.042569,1.671721 -2.054144,1.921886c-1.822392,0 -1.822392,0.250316 0.259993,1.198498c1.271411,0.473223 2.573973,1.196761 2.833888,1.196761c0.231673,0 1.534236,-0.723539 2.836799,-1.196761c2.314059,-1.198498 2.314059,-1.198498 0,-1.198498zm204.323833,38.470188c0.491667,0.473449 1.011575,-0.2516 1.011575,-1.448588c0,-0.947955 -0.519908,-1.894778 -1.011575,-1.894778c-0.782576,0 -1.302484,0.473374 -1.302484,1.169729c0,0.725049 0.519908,1.700263 1.302484,2.173637zm-1.822392,2.145094c-0.259915,-0.725049 -1.534236,-1.671645 -2.576805,-1.671645c-0.751581,0 -1.271489,0.946596 -0.751581,1.671645c0.231673,0.723614 1.274243,1.197063 2.314059,1.197063c1.014328,0 1.274243,-0.473449 1.014328,-1.197063zm-2.314059,10.752126c0.779823,0 1.822392,-0.250165 1.822392,-0.473223c0,-0.501992 -1.042569,-0.975214 -1.822392,-1.448663c-1.014328,-0.473374 -1.794229,-0.223057 -1.794229,0.473449c0,0.724898 0.779901,1.448437 1.794229,1.448437zm2.054144,-22.702674c1.039737,-0.4736 1.562399,-1.198423 1.299731,-1.894929c-0.779901,-1.698753 -5.148104,-1.698753 -5.148104,0c0,1.894929 1.531483,2.618543 3.848373,1.894929zm-14.14993,-17.912457c-1.302563,0.725049 -2.082385,2.145094 -1.822549,2.869992c1.302563,1.893494 2.836877,1.420045 4.136529,-1.671721c1.274321,-2.869992 0.754413,-3.343215 -2.31398,-1.198272zm-4.919184,36.798543c6.713256,6.434905 6.973249,6.685297 6.973249,4.540354c0,-1.196988 -0.519908,-2.172202 -1.302563,-2.172202c-0.751503,0 -2.054065,-1.198498 -2.833888,-2.618317c-0.75166,-1.421555 -2.314059,-2.870219 -3.58838,-2.870219c-2.3423,0 -2.3423,0.251676 0.751581,3.120384zm-5.408018,-11.254269c1.559724,0 2.314137,-0.473223 1.299809,-0.696355c-0.779823,-0.473374 -2.054144,-0.473374 -2.833967,0c-0.782733,0.223133 0,0.696355 1.534157,0.696355zm-7.464837,-32.479963c0.779823,0.723765 3.093881,1.670437 5.147946,2.14517c3.6167,0.723539 3.876614,0.723539 1.822471,-1.198272c-2.3423,-2.368227 -8.764568,-3.091766 -6.970417,-0.946898zm-15.712486,-39.639691c-0.779823,0.69628 -1.039737,2.144943 -0.779823,3.091539c0.519908,1.922037 2.054144,0.250392 2.054144,-2.618317c0,-1.448663 -0.259993,-1.671721 -1.274321,-0.473223zm7.72483,51.590466c2.054144,1.196837 2.836799,1.196837 3.879446,-0.474733c2.054065,-2.618468 0.751503,-3.815305 -3.096792,-2.144868c-3.096713,1.171012 -3.096713,1.171012 -0.782655,2.6196zm-5.147946,-11.950775c3.876536,-2.61809 3.876536,-2.61809 0.779823,-2.61809c-2.082385,0 -3.616621,0.946445 -4.396444,2.61809c-0.491667,1.670437 -1.014328,2.618543 -0.754413,2.618543c0,0 2.054144,-1.42148 4.371034,-2.618543zm-5.670765,38.72058c1.791319,2.618543 4.88811,2.618543 3.876536,-0.250316c-0.259915,-0.947955 -0.522661,-2.144943 -0.522661,-2.396619c0,-0.223057 -1.039816,-0.223057 -2.314059,0.251676c-2.082385,0.473374 -2.082385,1.196988 -1.039816,2.395259zm-7.987577,-9.805605c2.054065,2.618468 3.096713,2.868633 5.410772,0.946823c1.534236,-1.196988 1.534236,-1.196988 0,-1.420045c-0.779823,0 -2.833967,-0.251676 -4.628117,-0.725049c-2.576805,-0.946672 -2.576805,-0.946672 -0.782655,1.198272zm-0.259915,-26.046267c1.302484,0 2.83672,-3.816588 2.054144,-5.013576c-1.011575,-1.198272 -3.09396,0.723539 -3.09396,2.868633c0,1.198347 0.519908,2.144943 1.039816,2.144943zm-12.612941,16.240586c-1.562477,0.975214 -1.302484,1.198498 0.75166,1.198498c1.302484,0 2.833888,-0.474884 3.356628,-1.198498c0.779744,-1.894551 -1.794229,-1.894551 -4.108288,0zm0.259993,21.031331c0.231673,0.251676 1.011496,-0.250316 1.794151,-1.420045c0.779744,-0.975214 3.09396,-2.173486 4.888032,-2.646935c2.314059,-0.723765 3.356706,-1.893419 3.356706,-3.593682c0,-4.038211 -3.616621,-2.841449 -7.464994,2.396694c-1.562399,2.645651 -2.833888,4.790745 -2.573895,5.263968zm-2.83672,-11.002593c2.31398,-2.618166 2.31398,-3.093049 0.491509,-3.816664c-2.054065,-0.946823 -3.585469,1.198498 -3.585469,5.013652c-0.262747,2.869992 -0.262747,2.869992 3.09396,-1.196988zm-4.136529,-28.191134c0.259915,1.92181 0.779823,1.671645 2.31398,-1.894778c1.822549,-3.81538 1.822549,-4.317372 0.259993,-4.317372c-1.011496,0 -2.054144,0.723765 -2.314059,1.922112c-0.519908,0.946596 -0.519908,3.120309 -0.259915,4.290037zm-1.274321,-19.582743c0,0.973931 0.491588,3.342082 1.014328,5.013652c0.779823,3.343366 0.779823,3.343366 1.562477,0.473374c1.011496,-2.868482 0,-7.158519 -1.562477,-7.158519c-0.754413,0 -1.014328,0.723388 -1.014328,1.671494zm-18.051954,7.882285c-1.274243,1.671721 -1.274243,3.343441 -0.262747,8.357017c0.52274,3.593607 1.825303,7.187289 2.576805,7.883795c1.302563,1.198272 1.562477,0 1.822392,-7.409062c0,-9.053524 -1.302484,-11.923289 -4.13645,-8.83175zm2.314059,25.322652c0.259993,0.473449 0.779823,-0.473374 0.519908,-1.894702c0,-1.448663 -0.259915,-1.671721 -0.779823,-0.723614c-0.231752,0.946672 -0.231752,2.144943 0.259915,2.618317zm9.287308,-22.45266c-0.259915,0.473449 -0.259915,3.816815 0.519908,7.409062c0.782655,6.213358 1.014328,6.463523 1.274321,1.92317c0.259915,-7.410346 -0.259993,-11.003877 -1.794229,-9.332232zm-8.7674,67.385164c1.562477,-2.869992 4.136529,-7.660738 5.93068,-10.530503c2.054065,-3.091992 3.356628,-7.158746 3.876536,-11.225726c0.754413,-6.435131 0.754413,-6.435131 0.754413,-6.435131c-3.096713,3.566423 -3.096713,3.566423 -3.096713,3.566423c-1.534236,1.922037 -2.574052,4.06698 -2.574052,4.790745c0,1.894627 -4.890864,13.845175 -6.4251,15.990269c-0.779823,1.196761 -2.082385,3.843923 -2.314059,5.738474c-1.302563,5.487176 1.014328,4.540354 3.848294,-1.894551zm-18.286459,24.597603c0.782655,4.76326 0.782655,4.76326 3.356706,-5.488384c1.534236,-5.515719 3.848294,-14.345808 5.410772,-19.834268c2.054065,-6.935689 2.83672,-12.674163 2.83672,-20.780788c0,-10.529446 -0.262747,-10.752503 -2.316812,-9.554005c-4.656437,3.09169 -7.233242,11.698873 -8.273058,28.412681c-0.491588,8.608844 -1.014328,17.216027 -1.534157,19.110804c-0.259993,1.921886 0,5.515568 0.519829,8.13396zm0.52274,-61.145981c1.011496,2.368151 2.054144,4.290037 2.054144,4.290037c0.259915,0 1.531325,-1.448663 2.573973,-3.343215c1.302484,-1.670361 3.356628,-3.592247 4.136529,-4.288754c3.068393,-2.173486 3.848216,-8.858783 1.274243,-13.399136c-2.054144,-4.06698 -7.72483,-8.608693 -8.767478,-7.160029c-0.519829,0.473374 -1.271411,5.015086 -1.794151,10.279054c-1.039737,7.883568 -1.039737,10.280111 0.52274,13.622043zm-1.562477,-54.710623c0.519908,0.474733 1.039737,0.223057 1.039737,-0.500482c0,-0.948106 -0.519829,-1.894929 -1.039737,-2.368227c-0.782655,-0.501916 -1.274321,-0.250316 -1.274321,0.696506c0,0.723614 0.491667,1.671721 1.274321,2.172202zm-83.472881,64.237369c3.588301,0.2516 3.588301,0.2516 3.588301,0.2516c3.616621,0 7.233242,-3.093049 7.233242,-5.738474c0,-1.671721 -0.259915,-1.671721 -10.821543,5.486874zm1.534236,-6.685372c0,0.725276 0.519908,1.448663 1.302563,1.448663c1.271489,0 4.888032,-4.290037 4.108209,-5.013576c-0.782655,-0.975214 -5.410772,2.144868 -5.410772,3.564913zm2.83672,-16.463416c3.876614,4.764543 5.670765,5.237917 7.72483,2.144868c2.082385,-2.868482 0.259993,-4.790519 -5.933433,-5.487025c-5.148025,-0.725049 -5.148025,-0.725049 -1.791397,3.342158zm-2.83672,-13.397928c0,0.500482 1.822392,1.67021 3.876536,2.645425c9.519059,4.540429 11.341451,4.540429 11.081458,0.223284c0,-2.618543 -3.876536,-8.357168 -5.410772,-8.357168c-1.822392,0 -9.547222,4.540354 -9.547222,5.48846zm13.918257,33.928551c2.833967,0 3.093881,-0.723765 0.779823,-1.893494c-1.042569,-0.2516 -2.054144,0 -2.314059,0.696506c-0.52274,0.723388 0.259915,1.196988 1.534236,1.196988zm2.054144,-56.130895c-1.794229,-1.198423 -4.11112,-1.671645 -5.150857,-1.198423c-1.794151,0.948106 -1.534236,1.198423 1.039737,1.92181c1.274321,0.474884 3.879446,0.948182 5.150857,1.171239c1.534236,0 1.534236,-0.474733 -1.039737,-1.894627zm-0.231673,8.607183c1.531325,0 1.794151,-0.250316 0.751581,-0.973931c-0.751581,-0.222906 -1.794229,-0.222906 -2.314137,0.250392c-0.259915,0.473223 0.519908,0.946823 1.562556,0.723539zm1.531325,5.488535c-3.616542,0 -3.616542,0.222831 -1.531325,2.144868c2.573973,2.144943 3.325554,2.395108 4.368202,0.946672c1.794072,-1.893494 0.519829,-3.091539 -2.836877,-3.091539zm5.150936,-26.993089c-1.042648,-1.198272 -1.302563,0.946823 -0.779901,3.565139c0.259915,1.671721 1.299731,3.120158 1.822471,3.120158c1.011496,0 0.259915,-5.265252 -1.042569,-6.685297zm8.24466,31.533065c-0.519829,0.223284 0.782655,1.671721 2.316891,2.870143c1.562477,1.196988 2.833888,1.670286 2.833888,0.946672c0,-1.671494 -4.368124,-4.791803 -5.150778,-3.816815zm-6.450588,1.671721c-2.314059,1.671872 -1.011496,5.961682 2.342379,6.685448c1.794151,0.473298 4.630949,2.395335 6.4251,4.289886c1.562477,1.922037 2.833888,2.647086 2.833888,1.922037c0,-2.395259 -10.298803,-13.872585 -11.601366,-12.897371zm10.561629,19.834494c-1.534157,-3.845358 -3.328386,-5.738852 -6.685093,-6.937123c-2.573973,-0.946672 -5.150778,-1.448437 -5.930601,-1.196837c-0.782655,0.250165 2.314059,3.341931 6.713334,6.935538c8.24466,6.212074 8.24466,6.212074 5.90236,1.198423zm13.683751,-36.798694c-0.519908,0 -1.042648,0.946823 -1.042648,1.893494c0,1.198272 0.52274,1.922037 1.042648,1.922037c0.751581,0 1.274321,-0.723765 1.274321,-1.922037c0,-0.946672 -0.52274,-1.893494 -1.274321,-1.893494zm-2.3423,19.582743c0,1.671494 4.396444,0.473374 6.190594,-1.671721c2.574052,-3.593531 2.314059,-4.540354 -1.042569,-4.540354c-2.314059,0 -5.148025,3.343517 -5.148025,6.212074zm7.493157,-51.590692c-0.782655,3.091766 -1.302563,5.710082 -1.042569,5.961758c0.782576,0.946823 2.836799,-6.211923 2.836799,-9.081915c0,-1.196988 -0.782733,0.251676 -1.794229,3.120158zm13.395595,48.247251c-1.302563,0 -2.314137,0.474884 -2.314137,1.421329c0,0.723765 0.751581,1.198498 1.531404,1.198498c1.042569,0 2.054144,-0.474733 2.316891,-1.198498c0.519908,-0.946445 -0.262747,-1.421329 -1.534157,-1.421329zm-3.096792,44.905169c1.534236,4.318656 3.848294,8.357017 5.150857,9.332232c1.302563,0.723765 3.876536,4.067131 5.410772,7.410346c1.534236,3.342082 3.096713,5.960474 3.356706,5.960474c1.271411,0 -1.302563,-21.978003 -3.096713,-28.664583c-1.562556,-5.737191 -2.054223,-11.002593 -1.794229,-19.359611c0.231673,-6.211923 0,-11.700383 -0.519829,-12.173681c-0.259993,-0.473374 -2.054144,-0.473374 -3.616621,0c-2.836799,0.946672 -3.096713,1.671721 -3.096713,6.936972c0,4.038437 -0.519987,6.212074 -1.794229,7.158519c-3.616542,2.14517 -3.356628,14.318775 0,23.399332zm-7.464837,-32.006439c-0.519908,-3.593607 -1.039737,-4.06698 -3.876536,-4.06698c-3.356706,0 -3.356706,0.250316 -3.096713,5.263968c0,3.093049 0.522661,6.68658 0.782576,8.356942c0.259993,1.671721 1.274321,3.343215 2.314137,3.593607c2.054065,1.198423 4.368124,-7.158519 3.876536,-13.147536zm-3.876536,24.12287c-2.314137,-2.868709 -3.876536,-5.960474 -4.108288,-6.685297c0,-0.946672 -1.302484,-3.341931 -2.833967,-5.487025c-1.562477,-2.144943 -3.356628,-4.791878 -4.139282,-5.738701c-2.573973,-3.343215 -2.054144,-0.473223 0.782655,6.935689c1.794151,5.01486 4.88811,9.555289 8.504653,13.371877c6.685014,6.46224 7.464916,5.264195 1.794229,-2.396543zm-4.108288,11.727491c2.805725,0 2.574052,-0.250165 -1.302484,-4.066754c-2.574052,-2.395486 -4.368202,-5.013803 -4.368202,-6.21215c0,-0.946596 -3.356706,-4.317296 -7.233164,-7.409062c-3.848373,-3.120082 -7.464994,-6.211848 -7.984824,-7.159803c-0.52274,-1.196988 -0.782655,-1.196988 -0.782655,0.223057c0,1.448663 -1.271489,1.671494 -5.410772,0.946672c-2.833967,-0.473449 -5.148025,-0.473449 -5.148025,-0.221773c0,0.473374 1.039737,3.342082 2.082385,6.211848c1.794229,4.763486 2.573973,5.738852 8.244738,7.632195c3.58838,1.198272 9.258988,4.066905 12.875609,6.211848c3.356706,2.173713 7.464916,3.843923 9.027393,3.843923zm-40.217702,8.106626c1.042569,0 2.576805,-0.473223 3.616542,-1.198045c1.794229,-1.670437 0.262825,-1.670437 -3.093881,0c-1.534236,0.724823 -1.794151,0.94788 -0.522661,1.198045zm-2.833967,-5.961682c2.574052,-0.97378 10.821543,-1.921886 18.3147,-1.921886c14.147177,-0.223057 16.983896,-0.946445 11.313131,-2.395259c-1.794072,-0.473223 -5.90236,-1.671721 -9.258988,-2.868709c-5.93068,-2.144943 -18.054786,-1.421329 -19.326275,0.974157c-0.262747,0.474506 -1.562477,0.724823 -2.83672,0.474506c-2.574052,-0.724898 -5.150857,1.197139 -5.93068,5.013803c-1.042569,3.091539 0.779823,3.343215 7.72483,0.723388zm-20.600518,5.48846c0.519908,1.922037 3.096713,2.144943 5.150857,0.473223c1.271411,-0.946596 1.271411,-1.419819 0,-2.868482c-1.042569,-1.421555 -1.794151,-1.421555 -3.356628,-0.223057c-1.042569,0.696506 -1.794229,1.893494 -1.794229,2.618317zm-8.244738,16.714035c1.011575,0 1.531483,0.723765 1.011575,2.145094c-0.231752,0.975214 -1.011575,1.921886 -1.534236,1.921886c-0.779823,0 -1.271489,-0.946672 -1.271489,-1.921886c0,-1.169729 0.751581,-2.145094 1.794151,-2.145094z" fill-opacity="null" stroke-opacity="null" stroke-width="1.5" stroke="#000" fill="#fff"/>
  <text xml:space="preserve" text-anchor="start" font-family="'Courier New', Courier, monospace" font-size="24" id="svg_4" y="278.453125" x="22.5" stroke-width="0" stroke="#000" fill="#000000">Cottage Lake Seeds</text>
 </g>
</svg>